<?xml version="1.0" encoding="utf-8" standalone="no"?>
<!DOCTYPE svg PUBLIC "-//W3C//DTD SVG 1.1//EN"
  "http://www.w3.org/Graphics/SVG/1.1/DTD/svg11.dtd">
<svg xmlns:xlink="http://www.w3.org/1999/xlink" width="288pt" height="216pt" viewBox="0 0 288 216" xmlns="http://www.w3.org/2000/svg" version="1.1">
 <metadata>
  <rdf:RDF xmlns:dc="http://purl.org/dc/elements/1.1/" xmlns:cc="http://creativecommons.org/ns#" xmlns:rdf="http://www.w3.org/1999/02/22-rdf-syntax-ns#">
   <cc:Work>
    <dc:type rdf:resource="http://purl.org/dc/dcmitype/StillImage"/>
    <dc:date>2023-06-13T23:43:43.289124</dc:date>
    <dc:format>image/svg+xml</dc:format>
    <dc:creator>
     <cc:Agent>
      <dc:title>Matplotlib v3.6.2, https://matplotlib.org/</dc:title>
     </cc:Agent>
    </dc:creator>
   </cc:Work>
  </rdf:RDF>
 </metadata>
 <defs>
  <style type="text/css">*{stroke-linejoin: round; stroke-linecap: butt}</style>
 </defs>
 <g id="figure_1">
  <g id="patch_1">
   <path d="M 0 216 
L 288 216 
L 288 0 
L 0 0 
z
" style="fill: #ffffff"/>
  </g>
  <g id="axes_1">
   <g id="patch_2">
    <path d="M 31.88 174.04 
L 277.2 174.04 
L 277.2 10.8 
L 31.88 10.8 
z
" style="fill: #ffffff"/>
   </g>
   <g id="matplotlib.axis_1">
    <g id="xtick_1">
     <g id="line2d_1">
      <defs>
       <path id="m0c9ef0b2df" d="M 0 0 
L 0 3.5 
" style="stroke: #000000; stroke-width: 0.8"/>
      </defs>
      <g>
       <use xlink:href="#m0c9ef0b2df" x="43.030909" y="174.04" style="stroke: #000000; stroke-width: 0.8"/>
      </g>
     </g>
     <g id="text_1">
      <!-- −100 -->
      <g transform="translate(29.297315 188.638438) scale(0.1 -0.1)">
       <defs>
        <path id="DejaVuSans-2212" d="M 678 2272 
L 4684 2272 
L 4684 1741 
L 678 1741 
L 678 2272 
z
" transform="scale(0.015625)"/>
        <path id="DejaVuSans-31" d="M 794 531 
L 1825 531 
L 1825 4091 
L 703 3866 
L 703 4441 
L 1819 4666 
L 2450 4666 
L 2450 531 
L 3481 531 
L 3481 0 
L 794 0 
L 794 531 
z
" transform="scale(0.015625)"/>
        <path id="DejaVuSans-30" d="M 2034 4250 
Q 1547 4250 1301 3770 
Q 1056 3291 1056 2328 
Q 1056 1369 1301 889 
Q 1547 409 2034 409 
Q 2525 409 2770 889 
Q 3016 1369 3016 2328 
Q 3016 3291 2770 3770 
Q 2525 4250 2034 4250 
z
M 2034 4750 
Q 2819 4750 3233 4129 
Q 3647 3509 3647 2328 
Q 3647 1150 3233 529 
Q 2819 -91 2034 -91 
Q 1250 -91 836 529 
Q 422 1150 422 2328 
Q 422 3509 836 4129 
Q 1250 4750 2034 4750 
z
" transform="scale(0.015625)"/>
       </defs>
       <use xlink:href="#DejaVuSans-2212"/>
       <use xlink:href="#DejaVuSans-31" x="83.789062"/>
       <use xlink:href="#DejaVuSans-30" x="147.412109"/>
       <use xlink:href="#DejaVuSans-30" x="211.035156"/>
      </g>
     </g>
    </g>
    <g id="xtick_2">
     <g id="line2d_2">
      <g>
       <use xlink:href="#m0c9ef0b2df" x="98.785455" y="174.04" style="stroke: #000000; stroke-width: 0.8"/>
      </g>
     </g>
     <g id="text_2">
      <!-- −50 -->
      <g transform="translate(88.233111 188.638438) scale(0.1 -0.1)">
       <defs>
        <path id="DejaVuSans-35" d="M 691 4666 
L 3169 4666 
L 3169 4134 
L 1269 4134 
L 1269 2991 
Q 1406 3038 1543 3061 
Q 1681 3084 1819 3084 
Q 2600 3084 3056 2656 
Q 3513 2228 3513 1497 
Q 3513 744 3044 326 
Q 2575 -91 1722 -91 
Q 1428 -91 1123 -41 
Q 819 9 494 109 
L 494 744 
Q 775 591 1075 516 
Q 1375 441 1709 441 
Q 2250 441 2565 725 
Q 2881 1009 2881 1497 
Q 2881 1984 2565 2268 
Q 2250 2553 1709 2553 
Q 1456 2553 1204 2497 
Q 953 2441 691 2322 
L 691 4666 
z
" transform="scale(0.015625)"/>
       </defs>
       <use xlink:href="#DejaVuSans-2212"/>
       <use xlink:href="#DejaVuSans-35" x="83.789062"/>
       <use xlink:href="#DejaVuSans-30" x="147.412109"/>
      </g>
     </g>
    </g>
    <g id="xtick_3">
     <g id="line2d_3">
      <g>
       <use xlink:href="#m0c9ef0b2df" x="154.54" y="174.04" style="stroke: #000000; stroke-width: 0.8"/>
      </g>
     </g>
     <g id="text_3">
      <!-- 0 -->
      <g transform="translate(151.35875 188.638438) scale(0.1 -0.1)">
       <use xlink:href="#DejaVuSans-30"/>
      </g>
     </g>
    </g>
    <g id="xtick_4">
     <g id="line2d_4">
      <g>
       <use xlink:href="#m0c9ef0b2df" x="210.294545" y="174.04" style="stroke: #000000; stroke-width: 0.8"/>
      </g>
     </g>
     <g id="text_4">
      <!-- 50 -->
      <g transform="translate(203.932045 188.638438) scale(0.1 -0.1)">
       <use xlink:href="#DejaVuSans-35"/>
       <use xlink:href="#DejaVuSans-30" x="63.623047"/>
      </g>
     </g>
    </g>
    <g id="xtick_5">
     <g id="line2d_5">
      <g>
       <use xlink:href="#m0c9ef0b2df" x="266.049091" y="174.04" style="stroke: #000000; stroke-width: 0.8"/>
      </g>
     </g>
     <g id="text_5">
      <!-- 100 -->
      <g transform="translate(256.505341 188.638438) scale(0.1 -0.1)">
       <use xlink:href="#DejaVuSans-31"/>
       <use xlink:href="#DejaVuSans-30" x="63.623047"/>
       <use xlink:href="#DejaVuSans-30" x="127.246094"/>
      </g>
     </g>
    </g>
    <g id="text_6">
     <!-- Swept Field Detuning [MHz] -->
     <g transform="translate(85.200156 202.316563) scale(0.1 -0.1)">
      <defs>
       <path id="DejaVuSans-53" d="M 3425 4513 
L 3425 3897 
Q 3066 4069 2747 4153 
Q 2428 4238 2131 4238 
Q 1616 4238 1336 4038 
Q 1056 3838 1056 3469 
Q 1056 3159 1242 3001 
Q 1428 2844 1947 2747 
L 2328 2669 
Q 3034 2534 3370 2195 
Q 3706 1856 3706 1288 
Q 3706 609 3251 259 
Q 2797 -91 1919 -91 
Q 1588 -91 1214 -16 
Q 841 59 441 206 
L 441 856 
Q 825 641 1194 531 
Q 1563 422 1919 422 
Q 2459 422 2753 634 
Q 3047 847 3047 1241 
Q 3047 1584 2836 1778 
Q 2625 1972 2144 2069 
L 1759 2144 
Q 1053 2284 737 2584 
Q 422 2884 422 3419 
Q 422 4038 858 4394 
Q 1294 4750 2059 4750 
Q 2388 4750 2728 4690 
Q 3069 4631 3425 4513 
z
" transform="scale(0.015625)"/>
       <path id="DejaVuSans-77" d="M 269 3500 
L 844 3500 
L 1563 769 
L 2278 3500 
L 2956 3500 
L 3675 769 
L 4391 3500 
L 4966 3500 
L 4050 0 
L 3372 0 
L 2619 2869 
L 1863 0 
L 1184 0 
L 269 3500 
z
" transform="scale(0.015625)"/>
       <path id="DejaVuSans-65" d="M 3597 1894 
L 3597 1613 
L 953 1613 
Q 991 1019 1311 708 
Q 1631 397 2203 397 
Q 2534 397 2845 478 
Q 3156 559 3463 722 
L 3463 178 
Q 3153 47 2828 -22 
Q 2503 -91 2169 -91 
Q 1331 -91 842 396 
Q 353 884 353 1716 
Q 353 2575 817 3079 
Q 1281 3584 2069 3584 
Q 2775 3584 3186 3129 
Q 3597 2675 3597 1894 
z
M 3022 2063 
Q 3016 2534 2758 2815 
Q 2500 3097 2075 3097 
Q 1594 3097 1305 2825 
Q 1016 2553 972 2059 
L 3022 2063 
z
" transform="scale(0.015625)"/>
       <path id="DejaVuSans-70" d="M 1159 525 
L 1159 -1331 
L 581 -1331 
L 581 3500 
L 1159 3500 
L 1159 2969 
Q 1341 3281 1617 3432 
Q 1894 3584 2278 3584 
Q 2916 3584 3314 3078 
Q 3713 2572 3713 1747 
Q 3713 922 3314 415 
Q 2916 -91 2278 -91 
Q 1894 -91 1617 61 
Q 1341 213 1159 525 
z
M 3116 1747 
Q 3116 2381 2855 2742 
Q 2594 3103 2138 3103 
Q 1681 3103 1420 2742 
Q 1159 2381 1159 1747 
Q 1159 1113 1420 752 
Q 1681 391 2138 391 
Q 2594 391 2855 752 
Q 3116 1113 3116 1747 
z
" transform="scale(0.015625)"/>
       <path id="DejaVuSans-74" d="M 1172 4494 
L 1172 3500 
L 2356 3500 
L 2356 3053 
L 1172 3053 
L 1172 1153 
Q 1172 725 1289 603 
Q 1406 481 1766 481 
L 2356 481 
L 2356 0 
L 1766 0 
Q 1100 0 847 248 
Q 594 497 594 1153 
L 594 3053 
L 172 3053 
L 172 3500 
L 594 3500 
L 594 4494 
L 1172 4494 
z
" transform="scale(0.015625)"/>
       <path id="DejaVuSans-20" transform="scale(0.015625)"/>
       <path id="DejaVuSans-46" d="M 628 4666 
L 3309 4666 
L 3309 4134 
L 1259 4134 
L 1259 2759 
L 3109 2759 
L 3109 2228 
L 1259 2228 
L 1259 0 
L 628 0 
L 628 4666 
z
" transform="scale(0.015625)"/>
       <path id="DejaVuSans-69" d="M 603 3500 
L 1178 3500 
L 1178 0 
L 603 0 
L 603 3500 
z
M 603 4863 
L 1178 4863 
L 1178 4134 
L 603 4134 
L 603 4863 
z
" transform="scale(0.015625)"/>
       <path id="DejaVuSans-6c" d="M 603 4863 
L 1178 4863 
L 1178 0 
L 603 0 
L 603 4863 
z
" transform="scale(0.015625)"/>
       <path id="DejaVuSans-64" d="M 2906 2969 
L 2906 4863 
L 3481 4863 
L 3481 0 
L 2906 0 
L 2906 525 
Q 2725 213 2448 61 
Q 2172 -91 1784 -91 
Q 1150 -91 751 415 
Q 353 922 353 1747 
Q 353 2572 751 3078 
Q 1150 3584 1784 3584 
Q 2172 3584 2448 3432 
Q 2725 3281 2906 2969 
z
M 947 1747 
Q 947 1113 1208 752 
Q 1469 391 1925 391 
Q 2381 391 2643 752 
Q 2906 1113 2906 1747 
Q 2906 2381 2643 2742 
Q 2381 3103 1925 3103 
Q 1469 3103 1208 2742 
Q 947 2381 947 1747 
z
" transform="scale(0.015625)"/>
       <path id="DejaVuSans-44" d="M 1259 4147 
L 1259 519 
L 2022 519 
Q 2988 519 3436 956 
Q 3884 1394 3884 2338 
Q 3884 3275 3436 3711 
Q 2988 4147 2022 4147 
L 1259 4147 
z
M 628 4666 
L 1925 4666 
Q 3281 4666 3915 4102 
Q 4550 3538 4550 2338 
Q 4550 1131 3912 565 
Q 3275 0 1925 0 
L 628 0 
L 628 4666 
z
" transform="scale(0.015625)"/>
       <path id="DejaVuSans-75" d="M 544 1381 
L 544 3500 
L 1119 3500 
L 1119 1403 
Q 1119 906 1312 657 
Q 1506 409 1894 409 
Q 2359 409 2629 706 
Q 2900 1003 2900 1516 
L 2900 3500 
L 3475 3500 
L 3475 0 
L 2900 0 
L 2900 538 
Q 2691 219 2414 64 
Q 2138 -91 1772 -91 
Q 1169 -91 856 284 
Q 544 659 544 1381 
z
M 1991 3584 
L 1991 3584 
z
" transform="scale(0.015625)"/>
       <path id="DejaVuSans-6e" d="M 3513 2113 
L 3513 0 
L 2938 0 
L 2938 2094 
Q 2938 2591 2744 2837 
Q 2550 3084 2163 3084 
Q 1697 3084 1428 2787 
Q 1159 2491 1159 1978 
L 1159 0 
L 581 0 
L 581 3500 
L 1159 3500 
L 1159 2956 
Q 1366 3272 1645 3428 
Q 1925 3584 2291 3584 
Q 2894 3584 3203 3211 
Q 3513 2838 3513 2113 
z
" transform="scale(0.015625)"/>
       <path id="DejaVuSans-67" d="M 2906 1791 
Q 2906 2416 2648 2759 
Q 2391 3103 1925 3103 
Q 1463 3103 1205 2759 
Q 947 2416 947 1791 
Q 947 1169 1205 825 
Q 1463 481 1925 481 
Q 2391 481 2648 825 
Q 2906 1169 2906 1791 
z
M 3481 434 
Q 3481 -459 3084 -895 
Q 2688 -1331 1869 -1331 
Q 1566 -1331 1297 -1286 
Q 1028 -1241 775 -1147 
L 775 -588 
Q 1028 -725 1275 -790 
Q 1522 -856 1778 -856 
Q 2344 -856 2625 -561 
Q 2906 -266 2906 331 
L 2906 616 
Q 2728 306 2450 153 
Q 2172 0 1784 0 
Q 1141 0 747 490 
Q 353 981 353 1791 
Q 353 2603 747 3093 
Q 1141 3584 1784 3584 
Q 2172 3584 2450 3431 
Q 2728 3278 2906 2969 
L 2906 3500 
L 3481 3500 
L 3481 434 
z
" transform="scale(0.015625)"/>
       <path id="DejaVuSans-5b" d="M 550 4863 
L 1875 4863 
L 1875 4416 
L 1125 4416 
L 1125 -397 
L 1875 -397 
L 1875 -844 
L 550 -844 
L 550 4863 
z
" transform="scale(0.015625)"/>
       <path id="DejaVuSans-4d" d="M 628 4666 
L 1569 4666 
L 2759 1491 
L 3956 4666 
L 4897 4666 
L 4897 0 
L 4281 0 
L 4281 4097 
L 3078 897 
L 2444 897 
L 1241 4097 
L 1241 0 
L 628 0 
L 628 4666 
z
" transform="scale(0.015625)"/>
       <path id="DejaVuSans-48" d="M 628 4666 
L 1259 4666 
L 1259 2753 
L 3553 2753 
L 3553 4666 
L 4184 4666 
L 4184 0 
L 3553 0 
L 3553 2222 
L 1259 2222 
L 1259 0 
L 628 0 
L 628 4666 
z
" transform="scale(0.015625)"/>
       <path id="DejaVuSans-7a" d="M 353 3500 
L 3084 3500 
L 3084 2975 
L 922 459 
L 3084 459 
L 3084 0 
L 275 0 
L 275 525 
L 2438 3041 
L 353 3041 
L 353 3500 
z
" transform="scale(0.015625)"/>
       <path id="DejaVuSans-5d" d="M 1947 4863 
L 1947 -844 
L 622 -844 
L 622 -397 
L 1369 -397 
L 1369 4416 
L 622 4416 
L 622 4863 
L 1947 4863 
z
" transform="scale(0.015625)"/>
      </defs>
      <use xlink:href="#DejaVuSans-53"/>
      <use xlink:href="#DejaVuSans-77" x="63.476562"/>
      <use xlink:href="#DejaVuSans-65" x="145.263672"/>
      <use xlink:href="#DejaVuSans-70" x="206.787109"/>
      <use xlink:href="#DejaVuSans-74" x="270.263672"/>
      <use xlink:href="#DejaVuSans-20" x="309.472656"/>
      <use xlink:href="#DejaVuSans-46" x="341.259766"/>
      <use xlink:href="#DejaVuSans-69" x="391.529297"/>
      <use xlink:href="#DejaVuSans-65" x="419.3125"/>
      <use xlink:href="#DejaVuSans-6c" x="480.835938"/>
      <use xlink:href="#DejaVuSans-64" x="508.619141"/>
      <use xlink:href="#DejaVuSans-20" x="572.095703"/>
      <use xlink:href="#DejaVuSans-44" x="603.882812"/>
      <use xlink:href="#DejaVuSans-65" x="680.884766"/>
      <use xlink:href="#DejaVuSans-74" x="742.408203"/>
      <use xlink:href="#DejaVuSans-75" x="781.617188"/>
      <use xlink:href="#DejaVuSans-6e" x="844.996094"/>
      <use xlink:href="#DejaVuSans-69" x="908.375"/>
      <use xlink:href="#DejaVuSans-6e" x="936.158203"/>
      <use xlink:href="#DejaVuSans-67" x="999.537109"/>
      <use xlink:href="#DejaVuSans-20" x="1063.013672"/>
      <use xlink:href="#DejaVuSans-5b" x="1094.800781"/>
      <use xlink:href="#DejaVuSans-4d" x="1133.814453"/>
      <use xlink:href="#DejaVuSans-48" x="1220.09375"/>
      <use xlink:href="#DejaVuSans-7a" x="1295.289062"/>
      <use xlink:href="#DejaVuSans-5d" x="1347.779297"/>
     </g>
    </g>
   </g>
   <g id="matplotlib.axis_2">
    <g id="ytick_1">
     <g id="line2d_6">
      <defs>
       <path id="ma41f9a12e1" d="M 0 0 
L -3.5 0 
" style="stroke: #000000; stroke-width: 0.8"/>
      </defs>
      <g>
       <use xlink:href="#ma41f9a12e1" x="31.88" y="166.620053" style="stroke: #000000; stroke-width: 0.8"/>
      </g>
     </g>
    </g>
    <g id="ytick_2">
     <g id="line2d_7">
      <g>
       <use xlink:href="#ma41f9a12e1" x="31.88" y="136.940043" style="stroke: #000000; stroke-width: 0.8"/>
      </g>
     </g>
    </g>
    <g id="ytick_3">
     <g id="line2d_8">
      <g>
       <use xlink:href="#ma41f9a12e1" x="31.88" y="107.260032" style="stroke: #000000; stroke-width: 0.8"/>
      </g>
     </g>
    </g>
    <g id="ytick_4">
     <g id="line2d_9">
      <g>
       <use xlink:href="#ma41f9a12e1" x="31.88" y="77.580021" style="stroke: #000000; stroke-width: 0.8"/>
      </g>
     </g>
    </g>
    <g id="ytick_5">
     <g id="line2d_10">
      <g>
       <use xlink:href="#ma41f9a12e1" x="31.88" y="47.900011" style="stroke: #000000; stroke-width: 0.8"/>
      </g>
     </g>
    </g>
    <g id="ytick_6">
     <g id="line2d_11">
      <g>
       <use xlink:href="#ma41f9a12e1" x="31.88" y="18.22" style="stroke: #000000; stroke-width: 0.8"/>
      </g>
     </g>
    </g>
    <g id="text_7">
     <!-- Absorption -->
     <g transform="translate(18.800313 119.485625) rotate(-90) scale(0.1 -0.1)">
      <defs>
       <path id="DejaVuSans-41" d="M 2188 4044 
L 1331 1722 
L 3047 1722 
L 2188 4044 
z
M 1831 4666 
L 2547 4666 
L 4325 0 
L 3669 0 
L 3244 1197 
L 1141 1197 
L 716 0 
L 50 0 
L 1831 4666 
z
" transform="scale(0.015625)"/>
       <path id="DejaVuSans-62" d="M 3116 1747 
Q 3116 2381 2855 2742 
Q 2594 3103 2138 3103 
Q 1681 3103 1420 2742 
Q 1159 2381 1159 1747 
Q 1159 1113 1420 752 
Q 1681 391 2138 391 
Q 2594 391 2855 752 
Q 3116 1113 3116 1747 
z
M 1159 2969 
Q 1341 3281 1617 3432 
Q 1894 3584 2278 3584 
Q 2916 3584 3314 3078 
Q 3713 2572 3713 1747 
Q 3713 922 3314 415 
Q 2916 -91 2278 -91 
Q 1894 -91 1617 61 
Q 1341 213 1159 525 
L 1159 0 
L 581 0 
L 581 4863 
L 1159 4863 
L 1159 2969 
z
" transform="scale(0.015625)"/>
       <path id="DejaVuSans-73" d="M 2834 3397 
L 2834 2853 
Q 2591 2978 2328 3040 
Q 2066 3103 1784 3103 
Q 1356 3103 1142 2972 
Q 928 2841 928 2578 
Q 928 2378 1081 2264 
Q 1234 2150 1697 2047 
L 1894 2003 
Q 2506 1872 2764 1633 
Q 3022 1394 3022 966 
Q 3022 478 2636 193 
Q 2250 -91 1575 -91 
Q 1294 -91 989 -36 
Q 684 19 347 128 
L 347 722 
Q 666 556 975 473 
Q 1284 391 1588 391 
Q 1994 391 2212 530 
Q 2431 669 2431 922 
Q 2431 1156 2273 1281 
Q 2116 1406 1581 1522 
L 1381 1569 
Q 847 1681 609 1914 
Q 372 2147 372 2553 
Q 372 3047 722 3315 
Q 1072 3584 1716 3584 
Q 2034 3584 2315 3537 
Q 2597 3491 2834 3397 
z
" transform="scale(0.015625)"/>
       <path id="DejaVuSans-6f" d="M 1959 3097 
Q 1497 3097 1228 2736 
Q 959 2375 959 1747 
Q 959 1119 1226 758 
Q 1494 397 1959 397 
Q 2419 397 2687 759 
Q 2956 1122 2956 1747 
Q 2956 2369 2687 2733 
Q 2419 3097 1959 3097 
z
M 1959 3584 
Q 2709 3584 3137 3096 
Q 3566 2609 3566 1747 
Q 3566 888 3137 398 
Q 2709 -91 1959 -91 
Q 1206 -91 779 398 
Q 353 888 353 1747 
Q 353 2609 779 3096 
Q 1206 3584 1959 3584 
z
" transform="scale(0.015625)"/>
       <path id="DejaVuSans-72" d="M 2631 2963 
Q 2534 3019 2420 3045 
Q 2306 3072 2169 3072 
Q 1681 3072 1420 2755 
Q 1159 2438 1159 1844 
L 1159 0 
L 581 0 
L 581 3500 
L 1159 3500 
L 1159 2956 
Q 1341 3275 1631 3429 
Q 1922 3584 2338 3584 
Q 2397 3584 2469 3576 
Q 2541 3569 2628 3553 
L 2631 2963 
z
" transform="scale(0.015625)"/>
      </defs>
      <use xlink:href="#DejaVuSans-41"/>
      <use xlink:href="#DejaVuSans-62" x="68.408203"/>
      <use xlink:href="#DejaVuSans-73" x="131.884766"/>
      <use xlink:href="#DejaVuSans-6f" x="183.984375"/>
      <use xlink:href="#DejaVuSans-72" x="245.166016"/>
      <use xlink:href="#DejaVuSans-70" x="286.279297"/>
      <use xlink:href="#DejaVuSans-74" x="349.755859"/>
      <use xlink:href="#DejaVuSans-69" x="388.964844"/>
      <use xlink:href="#DejaVuSans-6f" x="416.748047"/>
      <use xlink:href="#DejaVuSans-6e" x="477.929688"/>
     </g>
    </g>
   </g>
   <g id="line2d_12">
    <path d="M 43.030909 37.672395 
L 45.261091 37.075287 
L 47.491273 36.489765 
L 49.721455 35.915725 
L 51.951636 35.353069 
L 54.181818 34.801707 
L 56.412 34.26155 
L 58.642182 33.732511 
L 60.872364 33.214501 
L 63.102545 32.707427 
L 65.332727 32.211184 
L 67.562909 31.725659 
L 69.793091 31.250717 
L 72.023273 30.786199 
L 74.253455 30.331912 
L 76.483636 29.887613 
L 78.713818 29.452998 
L 80.944 29.02767 
L 83.174182 28.61111 
L 85.404364 28.202623 
L 87.634545 27.801259 
L 89.864727 27.405694 
L 92.094909 27.014048 
L 94.325091 26.623599 
L 96.555273 26.230341 
L 98.785455 25.828371 
L 101.015636 25.409227 
L 103.245818 24.96209 
L 105.476 24.478194 
L 107.706182 23.967458 
L 109.936364 23.488597 
L 112.166545 23.13784 
L 114.396727 22.937849 
L 116.626909 22.798608 
L 118.857091 22.629076 
L 121.087273 22.389522 
L 123.317455 22.066236 
L 125.547636 21.648853 
L 127.777818 21.130237 
L 130.008 20.529841 
L 132.238182 19.919408 
L 134.468364 19.371692 
L 136.698545 18.884986 
L 138.928727 18.512415 
L 141.158909 18.552521 
L 143.389091 19.653244 
L 145.619273 22.940667 
L 147.849455 29.598577 
L 150.079636 39.027002 
L 152.309818 47.544566 
L 154.54 50.933975 
L 156.770182 47.544567 
L 159.000364 39.027004 
L 161.230545 29.598581 
L 163.460727 22.940672 
L 165.690909 19.65325 
L 167.921091 18.552528 
L 170.151273 18.512424 
L 172.381455 18.884996 
L 174.611636 19.371705 
L 176.841818 19.919428 
L 179.072 20.529868 
L 181.302182 21.130264 
L 183.532364 21.648869 
L 185.762545 22.066234 
L 187.992727 22.389492 
L 190.222909 22.629008 
L 192.453091 22.798499 
L 194.683273 22.937738 
L 196.913455 23.137825 
L 199.143636 23.488745 
L 201.373818 23.967709 
L 203.604 24.478454 
L 205.834182 24.962315 
L 208.064364 25.409411 
L 210.294545 25.828521 
L 212.524727 26.230467 
L 214.754909 26.623706 
L 216.985091 27.014143 
L 219.215273 27.405778 
L 221.445455 27.801336 
L 223.675636 28.202695 
L 225.905818 28.611178 
L 228.136 29.027735 
L 230.366182 29.45306 
L 232.596364 29.887674 
L 234.826545 30.331971 
L 237.056727 30.786257 
L 239.286909 31.250774 
L 241.517091 31.725715 
L 243.747273 32.21124 
L 245.977455 32.707482 
L 248.207636 33.214556 
L 250.437818 33.732566 
L 252.668 34.261604 
L 254.898182 34.80176 
L 257.128364 35.353122 
L 259.358545 35.915778 
L 261.588727 36.489818 
L 263.818909 37.07534 
L 266.049091 37.672447 
" clip-path="url(#paf97c93056)" style="fill: none; stroke: #d62728; stroke-width: 1.5; stroke-linecap: square"/>
   </g>
   <g id="line2d_13">
    <path d="M 43.030909 22.348629 
L 45.261091 22.330951 
L 47.491273 22.311217 
L 49.721455 22.289062 
L 51.951636 22.264035 
L 54.181818 22.235566 
L 56.412 22.202934 
L 58.642182 22.165224 
L 60.872364 22.121271 
L 63.102545 22.069593 
L 65.332727 22.008335 
L 67.562909 21.935241 
L 69.793091 21.847744 
L 72.023273 21.743344 
L 74.253455 21.620575 
L 76.483636 21.480994 
L 78.713818 21.332246 
L 80.944 21.190738 
L 83.174182 21.079698 
L 85.404364 21.018836 
L 87.634545 21.011031 
L 89.864727 21.039681 
L 92.094909 21.079679 
L 94.325091 21.109647 
L 96.555273 21.116349 
L 98.785455 21.09301 
L 101.015636 21.036153 
L 103.245818 20.943258 
L 105.476 20.811664 
L 107.706182 20.638613 
L 109.936364 20.422533 
L 112.166545 20.165751 
L 114.396727 19.878043 
L 116.626909 19.578015 
L 118.857091 19.287355 
L 121.087273 19.018521 
L 123.317455 18.769081 
L 125.547636 18.534865 
L 127.777818 18.333404 
L 130.008 18.22 
L 132.238182 18.29339 
L 134.468364 18.704493 
L 136.698545 19.675063 
L 138.928727 21.503905 
L 141.158909 24.514304 
L 143.389091 28.895526 
L 145.619273 34.459218 
L 147.849455 40.488612 
L 150.079636 45.894963 
L 152.309818 49.613965 
L 154.54 50.933975 
L 156.770182 49.613965 
L 159.000364 45.894962 
L 161.230545 40.488612 
L 163.460727 34.459219 
L 165.690909 28.895527 
L 167.921091 24.514306 
L 170.151273 21.503907 
L 172.381455 19.675065 
L 174.611636 18.704494 
L 176.841818 18.293391 
L 179.072 18.220001 
L 181.302182 18.333405 
L 183.532364 18.534868 
L 185.762545 18.769083 
L 187.992727 19.018518 
L 190.222909 19.287342 
L 192.453091 19.577989 
L 194.683273 19.878011 
L 196.913455 20.16572 
L 199.143636 20.422513 
L 201.373818 20.638613 
L 203.604 20.811691 
L 205.834182 20.94332 
L 208.064364 21.03626 
L 210.294545 21.093172 
L 212.524727 21.116575 
L 214.754909 21.109941 
L 216.985091 21.080025 
L 219.215273 21.040029 
L 221.445455 21.011292 
L 223.675636 21.018905 
L 225.905818 21.079517 
L 228.136 21.190335 
L 230.366182 21.331711 
L 232.596364 21.48042 
L 234.826545 21.620026 
L 237.056727 21.742851 
L 239.286909 21.847316 
L 241.517091 21.934874 
L 243.747273 22.008023 
L 245.977455 22.069327 
L 248.207636 22.121044 
L 250.437818 22.16503 
L 252.668 22.202766 
L 254.898182 22.235419 
L 257.128364 22.263907 
L 259.358545 22.288949 
L 261.588727 22.311116 
L 263.818909 22.330862 
L 266.049091 22.348548 
" clip-path="url(#paf97c93056)" style="fill: none; stroke: #1f77b4; stroke-width: 1.5; stroke-linecap: square"/>
   </g>
   <g id="line2d_14">
    <path d="M 43.030909 161.939177 
L 45.261091 161.751528 
L 47.491273 161.552481 
L 49.721455 161.341103 
L 51.951636 161.116368 
L 54.181818 160.877139 
L 56.412 160.622158 
L 58.642182 160.350031 
L 60.872364 160.059205 
L 63.102545 159.747952 
L 65.332727 159.414345 
L 67.562909 159.056225 
L 69.793091 158.671171 
L 72.023273 158.256464 
L 74.253455 157.809037 
L 76.483636 157.325426 
L 78.713818 156.801707 
L 80.944 156.233424 
L 83.174182 155.615499 
L 85.404364 154.942132 
L 87.634545 154.206677 
L 89.864727 153.401496 
L 92.094909 152.517779 
L 94.325091 151.545342 
L 96.555273 150.472363 
L 98.785455 149.285081 
L 101.015636 147.967423 
L 103.245818 146.500559 
L 105.476 144.86236 
L 107.706182 143.026748 
L 109.936364 140.962912 
L 112.166545 138.634384 
L 114.396727 135.997944 
L 116.626909 133.002369 
L 118.857091 129.587046 
L 121.087273 125.680534 
L 123.317455 121.199266 
L 125.547636 116.046773 
L 127.777818 110.114137 
L 130.008 103.282963 
L 132.238182 95.433068 
L 134.468364 86.458562 
L 136.698545 76.298114 
L 138.928727 64.988177 
L 141.158909 52.752231 
L 143.389091 40.148402 
L 145.619273 28.335327 
L 147.849455 19.716866 
L 150.079636 20.478328 
L 152.309818 55.88288 
L 154.54 166.62 
L 156.770182 55.88288 
L 159.000364 20.478328 
L 161.230545 19.716866 
L 163.460727 28.335327 
L 165.690909 40.148402 
L 167.921091 52.752231 
L 170.151273 64.988177 
L 172.381455 76.298114 
L 174.611636 86.458562 
L 176.841818 95.433068 
L 179.072 103.282963 
L 181.302182 110.114137 
L 183.532364 116.046773 
L 185.762545 121.199266 
L 187.992727 125.680534 
L 190.222909 129.587046 
L 192.453091 133.002369 
L 194.683273 135.997944 
L 196.913455 138.634384 
L 199.143636 140.962912 
L 201.373818 143.026748 
L 203.604 144.86236 
L 205.834182 146.500559 
L 208.064364 147.967423 
L 210.294545 149.285081 
L 212.524727 150.472363 
L 214.754909 151.545342 
L 216.985091 152.517779 
L 219.215273 153.401496 
L 221.445455 154.206677 
L 223.675636 154.942132 
L 225.905818 155.615499 
L 228.136 156.233424 
L 230.366182 156.801707 
L 232.596364 157.325426 
L 234.826545 157.809037 
L 237.056727 158.256464 
L 239.286909 158.671171 
L 241.517091 159.056225 
L 243.747273 159.414345 
L 245.977455 159.747952 
L 248.207636 160.059205 
L 250.437818 160.350031 
L 252.668 160.622158 
L 254.898182 160.877139 
L 257.128364 161.116368 
L 259.358545 161.341103 
L 261.588727 161.552481 
L 263.818909 161.751528 
L 266.049091 161.939177 
" clip-path="url(#paf97c93056)" style="fill: none; stroke-dasharray: 5.55,2.4; stroke-dashoffset: 0; stroke: #d62728; stroke-opacity: 0.5; stroke-width: 1.5"/>
   </g>
   <g id="line2d_15">
    <path d="M 43.030909 18.22 
L 45.261091 18.22118 
L 47.491273 18.222435 
L 49.721455 18.223771 
L 51.951636 18.225195 
L 54.181818 18.226715 
L 56.412 18.228339 
L 58.642182 18.230078 
L 60.872364 18.231943 
L 63.102545 18.233946 
L 65.332727 18.236101 
L 67.562909 18.238423 
L 69.793091 18.240932 
L 72.023273 18.243646 
L 74.253455 18.246589 
L 76.483636 18.249789 
L 78.713818 18.253274 
L 80.944 18.257081 
L 83.174182 18.261251 
L 85.404364 18.26583 
L 87.634545 18.270874 
L 89.864727 18.276448 
L 92.094909 18.28263 
L 94.325091 18.289511 
L 96.555273 18.2972 
L 98.785455 18.305829 
L 101.015636 18.315558 
L 103.245818 18.326582 
L 105.476 18.339141 
L 107.706182 18.353534 
L 109.936364 18.370136 
L 112.166545 18.389423 
L 114.396727 18.412007 
L 116.626909 18.438684 
L 118.857091 18.470504 
L 121.087273 18.508881 
L 123.317455 18.555744 
L 125.547636 18.613792 
L 127.777818 18.686885 
L 130.008 18.7807 
L 132.238182 18.903866 
L 134.468364 19.070006 
L 136.698545 19.301648 
L 138.928727 19.638216 
L 141.158909 20.153781 
L 143.389091 21.000899 
L 145.619273 22.535012 
L 147.849455 25.741552 
L 150.079636 34.163693 
L 152.309818 66.488865 
L 154.54 166.62 
L 156.770182 66.488865 
L 159.000364 34.163693 
L 161.230545 25.741552 
L 163.460727 22.535012 
L 165.690909 21.000899 
L 167.921091 20.153781 
L 170.151273 19.638216 
L 172.381455 19.301648 
L 174.611636 19.070006 
L 176.841818 18.903866 
L 179.072 18.7807 
L 181.302182 18.686885 
L 183.532364 18.613792 
L 185.762545 18.555744 
L 187.992727 18.508881 
L 190.222909 18.470504 
L 192.453091 18.438684 
L 194.683273 18.412007 
L 196.913455 18.389423 
L 199.143636 18.370136 
L 201.373818 18.353534 
L 203.604 18.339141 
L 205.834182 18.326582 
L 208.064364 18.315558 
L 210.294545 18.305829 
L 212.524727 18.2972 
L 214.754909 18.289511 
L 216.985091 18.28263 
L 219.215273 18.276448 
L 221.445455 18.270874 
L 223.675636 18.26583 
L 225.905818 18.261251 
L 228.136 18.257081 
L 230.366182 18.253274 
L 232.596364 18.249789 
L 234.826545 18.246589 
L 237.056727 18.243646 
L 239.286909 18.240932 
L 241.517091 18.238423 
L 243.747273 18.236101 
L 245.977455 18.233946 
L 248.207636 18.231943 
L 250.437818 18.230078 
L 252.668 18.228339 
L 254.898182 18.226715 
L 257.128364 18.225195 
L 259.358545 18.223771 
L 261.588727 18.222435 
L 263.818909 18.22118 
L 266.049091 18.22 
" clip-path="url(#paf97c93056)" style="fill: none; stroke-dasharray: 5.55,2.4; stroke-dashoffset: 0; stroke: #1f77b4; stroke-opacity: 0.5; stroke-width: 1.5"/>
   </g>
   <g id="text_8">
    <path d="M 44.73638 54.929555 
L 45.294904 57.611069 
L 46.509463 57.358092 
Q 47.184048 57.217585 47.478526 56.792353 
Q 47.774533 56.366803 47.64008 55.721282 
Q 47.506582 55.08035 47.065288 54.80837 
Q 46.625524 54.536071 45.950939 54.676578 
L 44.73638 54.929555 
z
M 43.605799 54.336699 
L 45.78558 53.882679 
Q 46.986372 53.63257 47.712876 54.04784 
Q 48.440911 54.462792 48.658841 55.509087 
Q 48.879 56.56609 48.376542 57.234145 
Q 47.875614 57.901882 46.674822 58.151991 
L 45.460263 58.404968 
L 46.057658 61.273101 
L 45.092435 61.474144 
L 43.605799 54.336699 
z
M 52.944575 55.109599 
Q 52.778354 55.054843 52.595688 55.051393 
Q 52.412703 55.046413 52.203138 55.090063 
Q 51.456658 55.245545 51.158414 55.813608 
Q 50.860169 56.381671 51.049424 57.290296 
L 51.636942 60.111009 
L 50.752792 60.295166 
L 49.637655 54.941317 
L 50.521805 54.75716 
L 50.695129 55.589301 
Q 50.871892 55.043349 51.266431 54.715383 
Q 51.662181 54.385568 52.298524 54.253026 
Q 52.388774 54.234228 52.50146 54.223526 
Q 52.613826 54.211293 52.752005 54.208049 
L 52.944575 55.109599 
z
M 55.678616 54.326265 
Q 54.971908 54.473463 54.675445 55.111381 
Q 54.378982 55.749298 54.579069 56.709932 
Q 54.779157 57.670565 55.302597 58.137708 
Q 55.827567 58.604531 56.538865 58.456377 
Q 57.242513 58.309816 57.537128 57.670688 
Q 57.832954 57.029711 57.633822 56.073667 
Q 57.435647 55.122211 56.908191 54.651117 
Q 56.382265 54.179705 55.678616 54.326265 
z
M 55.523453 53.581316 
Q 56.670706 53.342358 57.480887 53.952472 
Q 58.292279 54.560738 58.566922 55.879314 
Q 58.840608 57.193302 58.340498 58.079524 
Q 57.8416 58.963899 56.694346 59.202857 
Q 55.542504 59.44277 54.733534 58.830808 
Q 53.925775 58.216997 53.652089 56.90301 
Q 53.377446 55.584433 53.873923 54.703755 
Q 54.37161 53.821229 55.523453 53.581316 
z
M 63.868188 54.77513 
Q 63.666189 53.805318 63.151926 53.336264 
Q 62.637664 52.86721 61.940134 53.012497 
Q 61.241074 53.158102 60.956848 53.79347 
Q 60.672623 54.428839 60.874622 55.39865 
Q 61.076621 56.368462 61.590883 56.837516 
Q 62.105146 57.30657 62.804206 57.160965 
Q 63.501736 57.015678 63.785961 56.38031 
Q 64.070187 55.744941 63.868188 54.77513 
z
M 60.48528 53.529392 
Q 60.664273 52.994148 61.038352 52.675231 
Q 61.413642 52.354466 62.001036 52.232119 
Q 62.976966 52.028846 63.746992 52.676053 
Q 64.518548 53.322941 64.781402 54.584919 
Q 65.044255 55.846898 64.595452 56.749567 
Q 64.14786 57.650387 63.17193 57.853661 
Q 62.584536 57.976007 62.112388 57.831752 
Q 61.64177 57.687179 61.263964 57.267908 
L 61.431234 58.070986 
L 60.547084 58.255143 
L 58.997681 50.816352 
L 59.881831 50.632195 
L 60.48528 53.529392 
z
M 70.771413 53.102661 
L 70.860942 53.532499 
L 66.816492 54.374905 
Q 67.063874 55.271422 67.652457 55.645195 
Q 68.241039 56.018967 69.116011 55.836722 
Q 69.622332 55.731262 70.072253 55.50827 
Q 70.522173 55.285279 70.939848 54.938129 
L 71.113173 55.77027 
Q 70.680712 56.069427 70.205554 56.278522 
Q 69.730395 56.487618 69.219484 56.594034 
Q 67.93762 56.86103 67.034448 56.27188 
Q 66.130956 55.681201 65.865873 54.408515 
Q 65.592186 53.094528 66.141374 52.175738 
Q 66.690243 51.255419 67.895624 51.004354 
Q 68.975571 50.779415 69.749234 51.344466 
Q 70.522578 51.907988 70.771413 53.102661 
z
M 69.838007 53.027348 
Q 69.678763 52.308784 69.194578 51.961148 
Q 68.710075 51.611983 68.059965 51.747392 
Q 67.324193 51.900644 66.96878 52.408793 
Q 66.613367 52.916942 66.703456 53.686618 
L 69.838007 53.027348 
z
M 78.808873 47.248551 
L 79.005137 48.190829 
Q 78.401184 48.042106 77.886456 48.015251 
Q 77.371409 47.986866 76.917096 48.081493 
Q 76.129316 48.245577 75.76473 48.640722 
Q 75.400144 49.035868 75.517711 49.600316 
Q 75.616481 50.074514 75.95134 50.256941 
Q 76.285881 50.437838 77.110685 50.420857 
L 77.718341 50.418781 
Q 78.841302 50.400347 79.46328 50.811852 
Q 80.085259 51.223358 80.266229 52.092211 
Q 80.482566 53.130858 79.898079 53.81121 
Q 79.315122 54.491244 77.972071 54.770984 
Q 77.46575 54.876444 76.869757 54.880879 
Q 76.275294 54.884996 75.61659 54.787578 
L 75.409493 53.793292 
Q 76.065388 53.999825 76.664884 54.050522 
Q 77.264061 54.099688 77.808624 53.986263 
Q 78.634646 53.814213 79.016824 53.396252 
Q 79.398683 52.97676 79.273151 52.37407 
Q 79.163867 51.849393 78.779296 51.619863 
Q 78.394725 51.390334 77.628048 51.395208 
L 77.015229 51.403147 
Q 75.890676 51.413932 75.311717 51.055712 
Q 74.734287 50.697173 74.563831 49.878799 
Q 74.366611 48.931933 74.920122 48.248455 
Q 75.473633 47.564978 76.643831 47.321241 
Q 77.147093 47.216418 77.686298 47.199871 
Q 78.226714 47.181476 78.808873 47.248551 
z
M 84.925118 47.805268 
L 85.09653 48.628231 
Q 84.680278 48.499466 84.284162 48.475038 
Q 83.888045 48.450609 83.505627 48.530262 
Q 82.649012 48.708684 82.28792 49.350486 
Q 81.92804 49.990441 82.132269 50.97096 
Q 82.336499 51.951479 82.922274 52.396062 
Q 83.50926 52.838796 84.365876 52.660374 
Q 84.748294 52.580721 85.101716 52.400174 
Q 85.455139 52.219626 85.785366 51.93538 
L 85.954867 52.749165 
Q 85.6219 52.997273 85.245087 53.165136 
Q 84.870123 53.33421 84.424988 53.426926 
Q 83.215019 53.678947 82.343843 53.067173 
Q 81.474196 52.45508 81.205289 51.164038 
Q 80.932558 49.854639 81.495384 48.955354 
Q 82.059422 48.05422 83.312222 47.793278 
Q 83.717585 47.708846 84.122116 47.712369 
Q 84.526327 47.714363 84.925118 47.805268 
z
M 89.40012 49.438009 
Q 88.333939 49.660081 87.973117 49.989004 
Q 87.612294 50.317928 87.734959 50.906852 
Q 87.832454 51.374931 88.198798 51.585913 
Q 88.564822 51.795364 89.094089 51.685125 
Q 89.826801 51.532511 90.160867 50.921874 
Q 90.494933 50.311237 90.315874 49.451562 
L 90.275092 49.255764 
L 89.40012 49.438009 
z
M 91.078823 48.708501 
L 91.715089 51.763254 
L 90.835528 51.946455 
L 90.666346 51.1342 
Q 90.466318 51.683402 90.065024 52.009583 
Q 89.663729 52.335765 89.013619 52.471174 
Q 88.192186 52.642268 87.60953 52.281625 
Q 87.028404 51.920664 86.867187 51.146651 
Q 86.679207 50.244145 87.187844 49.659392 
Q 87.69801 49.074321 88.897273 48.824531 
L 90.131717 48.567412 
L 90.113556 48.480221 
Q 89.987068 47.872941 89.518685 47.62416 
Q 89.050303 47.375379 88.328298 47.525763 
Q 87.869397 47.621346 87.45638 47.822286 
Q 87.044894 48.022908 86.69 48.326657 
L 86.520499 47.512872 
Q 86.963475 47.225889 87.398671 47.039482 
Q 87.833548 46.851544 88.263385 46.762015 
Q 89.425935 46.519871 90.125094 47.003082 
Q 90.823935 47.484764 91.078823 48.708501 
z
M 97.304147 47.226708 
L 97.977371 50.458903 
L 97.09781 50.642104 
L 96.430639 47.438972 
Q 96.27229 46.678726 95.897156 46.364237 
Q 95.521703 46.048219 94.92972 46.171521 
Q 94.216893 46.319994 93.900039 46.860012 
Q 93.582866 47.398501 93.746313 48.183222 
L 94.376525 51.208912 
L 93.492375 51.393069 
L 92.377238 46.03922 
L 93.261388 45.855063 
L 93.434712 46.687204 
Q 93.650673 46.137876 94.027748 45.810355 
Q 94.406353 45.482515 94.966213 45.365903 
Q 95.888604 45.173781 96.480114 45.645898 
Q 97.073154 46.117696 97.304147 47.226708 
z
" clip-path="url(#paf97c93056)" style="fill: #d62728; stroke: #ffffff; stroke-width: 5"/>
    <path d="M 44.73638 54.929555 
L 45.294904 57.611069 
L 46.509463 57.358092 
Q 47.184048 57.217585 47.478526 56.792353 
Q 47.774533 56.366803 47.64008 55.721282 
Q 47.506582 55.08035 47.065288 54.80837 
Q 46.625524 54.536071 45.950939 54.676578 
L 44.73638 54.929555 
z
M 43.605799 54.336699 
L 45.78558 53.882679 
Q 46.986372 53.63257 47.712876 54.04784 
Q 48.440911 54.462792 48.658841 55.509087 
Q 48.879 56.56609 48.376542 57.234145 
Q 47.875614 57.901882 46.674822 58.151991 
L 45.460263 58.404968 
L 46.057658 61.273101 
L 45.092435 61.474144 
L 43.605799 54.336699 
z
M 52.944575 55.109599 
Q 52.778354 55.054843 52.595688 55.051393 
Q 52.412703 55.046413 52.203138 55.090063 
Q 51.456658 55.245545 51.158414 55.813608 
Q 50.860169 56.381671 51.049424 57.290296 
L 51.636942 60.111009 
L 50.752792 60.295166 
L 49.637655 54.941317 
L 50.521805 54.75716 
L 50.695129 55.589301 
Q 50.871892 55.043349 51.266431 54.715383 
Q 51.662181 54.385568 52.298524 54.253026 
Q 52.388774 54.234228 52.50146 54.223526 
Q 52.613826 54.211293 52.752005 54.208049 
L 52.944575 55.109599 
z
M 55.678616 54.326265 
Q 54.971908 54.473463 54.675445 55.111381 
Q 54.378982 55.749298 54.579069 56.709932 
Q 54.779157 57.670565 55.302597 58.137708 
Q 55.827567 58.604531 56.538865 58.456377 
Q 57.242513 58.309816 57.537128 57.670688 
Q 57.832954 57.029711 57.633822 56.073667 
Q 57.435647 55.122211 56.908191 54.651117 
Q 56.382265 54.179705 55.678616 54.326265 
z
M 55.523453 53.581316 
Q 56.670706 53.342358 57.480887 53.952472 
Q 58.292279 54.560738 58.566922 55.879314 
Q 58.840608 57.193302 58.340498 58.079524 
Q 57.8416 58.963899 56.694346 59.202857 
Q 55.542504 59.44277 54.733534 58.830808 
Q 53.925775 58.216997 53.652089 56.90301 
Q 53.377446 55.584433 53.873923 54.703755 
Q 54.37161 53.821229 55.523453 53.581316 
z
M 63.868188 54.77513 
Q 63.666189 53.805318 63.151926 53.336264 
Q 62.637664 52.86721 61.940134 53.012497 
Q 61.241074 53.158102 60.956848 53.79347 
Q 60.672623 54.428839 60.874622 55.39865 
Q 61.076621 56.368462 61.590883 56.837516 
Q 62.105146 57.30657 62.804206 57.160965 
Q 63.501736 57.015678 63.785961 56.38031 
Q 64.070187 55.744941 63.868188 54.77513 
z
M 60.48528 53.529392 
Q 60.664273 52.994148 61.038352 52.675231 
Q 61.413642 52.354466 62.001036 52.232119 
Q 62.976966 52.028846 63.746992 52.676053 
Q 64.518548 53.322941 64.781402 54.584919 
Q 65.044255 55.846898 64.595452 56.749567 
Q 64.14786 57.650387 63.17193 57.853661 
Q 62.584536 57.976007 62.112388 57.831752 
Q 61.64177 57.687179 61.263964 57.267908 
L 61.431234 58.070986 
L 60.547084 58.255143 
L 58.997681 50.816352 
L 59.881831 50.632195 
L 60.48528 53.529392 
z
M 70.771413 53.102661 
L 70.860942 53.532499 
L 66.816492 54.374905 
Q 67.063874 55.271422 67.652457 55.645195 
Q 68.241039 56.018967 69.116011 55.836722 
Q 69.622332 55.731262 70.072253 55.50827 
Q 70.522173 55.285279 70.939848 54.938129 
L 71.113173 55.77027 
Q 70.680712 56.069427 70.205554 56.278522 
Q 69.730395 56.487618 69.219484 56.594034 
Q 67.93762 56.86103 67.034448 56.27188 
Q 66.130956 55.681201 65.865873 54.408515 
Q 65.592186 53.094528 66.141374 52.175738 
Q 66.690243 51.255419 67.895624 51.004354 
Q 68.975571 50.779415 69.749234 51.344466 
Q 70.522578 51.907988 70.771413 53.102661 
z
M 69.838007 53.027348 
Q 69.678763 52.308784 69.194578 51.961148 
Q 68.710075 51.611983 68.059965 51.747392 
Q 67.324193 51.900644 66.96878 52.408793 
Q 66.613367 52.916942 66.703456 53.686618 
L 69.838007 53.027348 
z
M 78.808873 47.248551 
L 79.005137 48.190829 
Q 78.401184 48.042106 77.886456 48.015251 
Q 77.371409 47.986866 76.917096 48.081493 
Q 76.129316 48.245577 75.76473 48.640722 
Q 75.400144 49.035868 75.517711 49.600316 
Q 75.616481 50.074514 75.95134 50.256941 
Q 76.285881 50.437838 77.110685 50.420857 
L 77.718341 50.418781 
Q 78.841302 50.400347 79.46328 50.811852 
Q 80.085259 51.223358 80.266229 52.092211 
Q 80.482566 53.130858 79.898079 53.81121 
Q 79.315122 54.491244 77.972071 54.770984 
Q 77.46575 54.876444 76.869757 54.880879 
Q 76.275294 54.884996 75.61659 54.787578 
L 75.409493 53.793292 
Q 76.065388 53.999825 76.664884 54.050522 
Q 77.264061 54.099688 77.808624 53.986263 
Q 78.634646 53.814213 79.016824 53.396252 
Q 79.398683 52.97676 79.273151 52.37407 
Q 79.163867 51.849393 78.779296 51.619863 
Q 78.394725 51.390334 77.628048 51.395208 
L 77.015229 51.403147 
Q 75.890676 51.413932 75.311717 51.055712 
Q 74.734287 50.697173 74.563831 49.878799 
Q 74.366611 48.931933 74.920122 48.248455 
Q 75.473633 47.564978 76.643831 47.321241 
Q 77.147093 47.216418 77.686298 47.199871 
Q 78.226714 47.181476 78.808873 47.248551 
z
M 84.925118 47.805268 
L 85.09653 48.628231 
Q 84.680278 48.499466 84.284162 48.475038 
Q 83.888045 48.450609 83.505627 48.530262 
Q 82.649012 48.708684 82.28792 49.350486 
Q 81.92804 49.990441 82.132269 50.97096 
Q 82.336499 51.951479 82.922274 52.396062 
Q 83.50926 52.838796 84.365876 52.660374 
Q 84.748294 52.580721 85.101716 52.400174 
Q 85.455139 52.219626 85.785366 51.93538 
L 85.954867 52.749165 
Q 85.6219 52.997273 85.245087 53.165136 
Q 84.870123 53.33421 84.424988 53.426926 
Q 83.215019 53.678947 82.343843 53.067173 
Q 81.474196 52.45508 81.205289 51.164038 
Q 80.932558 49.854639 81.495384 48.955354 
Q 82.059422 48.05422 83.312222 47.793278 
Q 83.717585 47.708846 84.122116 47.712369 
Q 84.526327 47.714363 84.925118 47.805268 
z
M 89.40012 49.438009 
Q 88.333939 49.660081 87.973117 49.989004 
Q 87.612294 50.317928 87.734959 50.906852 
Q 87.832454 51.374931 88.198798 51.585913 
Q 88.564822 51.795364 89.094089 51.685125 
Q 89.826801 51.532511 90.160867 50.921874 
Q 90.494933 50.311237 90.315874 49.451562 
L 90.275092 49.255764 
L 89.40012 49.438009 
z
M 91.078823 48.708501 
L 91.715089 51.763254 
L 90.835528 51.946455 
L 90.666346 51.1342 
Q 90.466318 51.683402 90.065024 52.009583 
Q 89.663729 52.335765 89.013619 52.471174 
Q 88.192186 52.642268 87.60953 52.281625 
Q 87.028404 51.920664 86.867187 51.146651 
Q 86.679207 50.244145 87.187844 49.659392 
Q 87.69801 49.074321 88.897273 48.824531 
L 90.131717 48.567412 
L 90.113556 48.480221 
Q 89.987068 47.872941 89.518685 47.62416 
Q 89.050303 47.375379 88.328298 47.525763 
Q 87.869397 47.621346 87.45638 47.822286 
Q 87.044894 48.022908 86.69 48.326657 
L 86.520499 47.512872 
Q 86.963475 47.225889 87.398671 47.039482 
Q 87.833548 46.851544 88.263385 46.762015 
Q 89.425935 46.519871 90.125094 47.003082 
Q 90.823935 47.484764 91.078823 48.708501 
z
M 97.304147 47.226708 
L 97.977371 50.458903 
L 97.09781 50.642104 
L 96.430639 47.438972 
Q 96.27229 46.678726 95.897156 46.364237 
Q 95.521703 46.048219 94.92972 46.171521 
Q 94.216893 46.319994 93.900039 46.860012 
Q 93.582866 47.398501 93.746313 48.183222 
L 94.376525 51.208912 
L 93.492375 51.393069 
L 92.377238 46.03922 
L 93.261388 45.855063 
L 93.434712 46.687204 
Q 93.650673 46.137876 94.027748 45.810355 
Q 94.406353 45.482515 94.966213 45.365903 
Q 95.888604 45.173781 96.480114 45.645898 
Q 97.073154 46.117696 97.304147 47.226708 
z
" clip-path="url(#paf97c93056)" style="fill: #d62728"/>
   </g>
   <g id="text_9">
    <path d="M 209.070099 38.718818 
L 209.021481 39.756742 
Q 208.545303 39.269866 207.992532 39.015598 
Q 207.439834 38.75977 206.806154 38.730087 
Q 205.557523 38.671599 204.858437 39.403753 
Q 204.159352 40.135907 204.091725 41.579637 
Q 204.024318 43.018684 204.651902 43.812981 
Q 205.279487 44.607279 206.528117 44.665766 
Q 207.161798 44.695449 207.73599 44.492406 
Q 208.310181 44.289362 208.829787 43.84913 
L 208.781534 44.879251 
Q 208.248463 45.206229 207.661149 45.355474 
Q 207.075469 45.503232 206.432424 45.473111 
Q 204.777988 45.395614 203.873282 44.339626 
Q 202.97021 43.28215 203.05224 41.530946 
Q 203.134488 39.775058 204.132384 38.808191 
Q 205.131913 37.839836 206.786349 37.917333 
Q 207.438759 37.947893 208.008135 38.148191 
Q 208.579073 38.348562 209.070099 38.718818 
z
M 212.580497 40.774385 
Q 211.859413 40.740608 211.413168 41.284386 
Q 210.966923 41.828164 210.92101 42.808339 
Q 210.875097 43.788515 211.265435 44.37148 
Q 211.657334 44.954518 212.383101 44.988514 
Q 213.101063 45.022144 213.545821 44.476732 
Q 213.992212 43.929833 214.037905 42.95434 
Q 214.08338 41.983529 213.690139 41.395736 
Q 213.29846 40.808015 212.580497 40.774385 
z
M 212.616102 40.014281 
Q 213.786693 40.069113 214.419033 40.862069 
Q 215.053007 41.653537 214.989986 42.998937 
Q 214.927185 44.339654 214.221783 45.073077 
Q 213.518015 45.805011 212.347423 45.750179 
Q 211.172149 45.695127 210.541443 44.900683 
Q 209.912371 44.104752 209.975172 42.764035 
Q 210.038193 41.418635 210.738694 40.689676 
Q 211.440828 39.959229 212.616102 40.014281 
z
M 216.357988 43.635518 
L 216.512908 40.328207 
L 217.410361 40.370245 
L 217.25705 43.643219 
Q 217.220714 44.418931 217.503742 44.821678 
Q 217.788404 45.222937 218.39399 45.251303 
Q 219.119756 45.285299 219.562883 44.841485 
Q 220.00757 44.397743 220.045076 43.597059 
L 220.190126 40.500454 
L 221.087579 40.542492 
L 220.831695 46.005252 
L 219.934241 45.963214 
L 219.973574 45.12351 
Q 219.624047 45.606122 219.180377 45.827792 
Q 218.738267 46.049536 218.167019 46.022778 
Q 217.225863 45.978693 216.764752 45.370514 
Q 216.305203 44.762408 216.357988 43.635518 
z
M 218.77751 40.302891 
L 218.77751 40.302891 
z
M 223.58624 45.313068 
L 223.450548 48.209892 
L 222.548412 48.167634 
L 222.901606 40.627464 
L 223.803742 40.669722 
L 223.76492 41.4985 
Q 224.071794 41.02484 224.513611 40.80934 
Q 224.957063 40.592351 225.556405 40.620425 
Q 226.552189 40.667069 227.136389 41.485926 
Q 227.72215 42.304856 227.661834 43.592507 
Q 227.601519 44.880157 226.941697 45.642306 
Q 226.28351 46.402968 225.287727 46.356324 
Q 224.688384 46.328249 224.267158 46.070758 
Q 223.847493 45.81334 223.58624 45.313068 
z
M 226.730043 43.54886 
Q 226.776395 42.55932 226.395422 41.976794 
Q 226.014449 41.394267 225.302729 41.360929 
Q 224.589449 41.327518 224.15569 41.871881 
Q 223.721932 42.416244 223.67558 43.405784 
Q 223.629228 44.395324 224.010202 44.97785 
Q 224.391175 45.560377 225.104455 45.593788 
Q 225.816175 45.627126 226.249933 45.082763 
Q 226.683692 44.5384 226.730043 43.54886 
z
M 229.376296 38.798726 
L 230.273749 38.840765 
L 229.918216 46.43088 
L 229.020762 46.388842 
L 229.376296 38.798726 
z
M 232.051924 41.05608 
L 232.949378 41.098118 
L 232.693493 46.560878 
L 231.79604 46.51884 
L 232.051924 41.05608 
z
M 232.151573 38.928725 
L 233.049027 38.970763 
L 232.995729 40.108578 
L 232.098276 40.06654 
L 232.151573 38.928725 
z
M 239.267693 43.563642 
L 239.113212 46.861588 
L 238.215759 46.81955 
L 238.368851 43.551259 
Q 238.405186 42.775547 238.120378 42.377409 
Q 237.835643 41.977711 237.231618 41.949418 
Q 236.504291 41.915349 236.062725 42.359236 
Q 235.621232 42.801563 235.583727 43.602248 
L 235.439116 46.689488 
L 234.53698 46.64723 
L 234.792864 41.18447 
L 235.695 41.226727 
L 235.655228 42.075796 
Q 236.001414 41.597721 236.44828 41.374636 
Q 236.896705 41.151623 237.467954 41.178382 
Q 238.40911 41.222467 238.864123 41.827232 
Q 239.320698 42.43207 239.267693 43.563642 
z
M 244.627702 44.31839 
Q 244.673396 43.342897 244.295789 42.788684 
Q 243.919816 42.232984 243.192489 42.198915 
Q 242.471404 42.165138 242.043571 42.683187 
Q 241.615811 43.199675 241.570117 44.175168 
Q 241.524643 45.145978 241.902176 45.701752 
Q 242.27971 46.257526 243.000794 46.291302 
Q 243.728122 46.325372 244.154394 45.80725 
Q 244.582228 45.289201 244.627702 44.31839 
z
M 245.425945 46.478418 
Q 245.360658 47.872203 244.709149 48.523682 
Q 244.059201 49.175234 242.780915 49.115357 
Q 242.307996 49.093205 241.891434 49.003303 
Q 241.474872 48.913401 241.086865 48.74819 
L 241.127733 47.875709 
Q 241.512597 48.108034 241.893359 48.227543 
Q 242.274049 48.348614 242.673611 48.36733 
Q 243.557017 48.40871 244.017166 47.968821 
Q 244.477315 47.528932 244.520962 46.597142 
L 244.541798 46.152317 
Q 244.241314 46.623148 243.796228 46.841624 
Q 243.351143 47.0601 242.745557 47.031733 
Q 241.74197 46.984724 241.162843 46.191132 
Q 240.58379 45.395979 240.643009 44.131741 
Q 240.702374 42.86438 241.353148 42.128399 
Q 242.003996 41.390857 243.007583 41.437867 
Q 243.613169 41.466233 244.035883 41.725359 
Q 244.458596 41.984484 244.713826 42.479781 
L 244.752647 41.651002 
L 245.6501 41.69304 
L 245.425945 46.478418 
z
M 255.15269 40.553609 
L 255.107654 41.515055 
Q 254.559906 41.220353 254.068155 41.065925 
Q 253.576478 40.909936 253.112924 40.888222 
Q 252.309118 40.85057 251.857475 41.142257 
Q 251.405832 41.433944 251.378855 42.009875 
Q 251.356191 42.49372 251.634946 42.753923 
Q 251.913774 43.012565 252.716732 43.201906 
L 253.30569 43.351502 
Q 254.397737 43.613824 254.897378 44.167496 
Q 255.397018 44.721168 255.355492 45.607696 
Q 255.30585 46.667472 254.570103 47.180483 
Q 253.835917 47.693567 252.465544 47.629377 
Q 251.948923 47.605177 251.370671 47.460775 
Q 250.793981 47.316446 250.180412 47.057766 
L 250.227934 46.043253 
Q 250.811558 46.406897 251.379447 46.605561 
Q 251.947409 46.802665 252.50305 46.828692 
Q 253.345875 46.868171 253.820247 46.558778 
Q 254.294691 46.247825 254.323496 45.632874 
Q 254.348573 45.097524 254.03343 44.779304 
Q 253.718287 44.461085 252.974639 44.274523 
L 252.379219 44.129316 
Q 251.287537 43.85919 250.816261 43.367851 
Q 250.346545 42.876585 250.385659 42.041563 
Q 250.430914 41.075435 251.137445 40.55167 
Q 251.843976 40.027905 253.037979 40.083834 
Q 253.551479 40.107887 254.07776 40.226392 
Q 254.605676 40.343409 255.15269 40.553609 
z
M 260.936618 42.61869 
L 260.897285 43.458395 
Q 260.526322 43.229849 260.148827 43.107365 
Q 259.771332 42.98488 259.381135 42.966602 
Q 258.507093 42.925661 257.997295 43.457077 
Q 257.48913 43.987005 257.442267 44.98747 
Q 257.395403 45.987936 257.851733 46.564607 
Q 258.309697 47.13979 259.183738 47.180732 
Q 259.573936 47.199009 259.961227 47.112348 
Q 260.348519 47.025687 260.739221 46.83282 
L 260.700327 47.663159 
Q 260.315988 47.820348 259.909211 47.88889 
Q 259.503921 47.959066 259.049731 47.937791 
Q 257.815147 47.879961 257.124155 47.07018 
Q 256.434724 46.260472 256.496429 44.943166 
Q 256.559011 43.607131 257.328406 42.876706 
Q 258.099434 42.144794 259.37772 42.204671 
Q 259.791329 42.224045 260.182187 42.328385 
Q 260.573119 42.431164 260.936618 42.61869 
z
M 264.862743 45.316287 
Q 263.774874 45.265329 263.343397 45.493828 
Q 262.91192 45.722327 262.883773 46.323231 
Q 262.861401 46.800832 263.163521 47.096542 
Q 263.465714 47.390692 264.005746 47.415988 
Q 264.753364 47.451007 265.229216 46.943029 
Q 265.705069 46.43505 265.746156 45.557887 
L 265.755514 45.358106 
L 264.862743 45.316287 
z
M 266.670368 45.028676 
L 266.524368 48.145571 
L 265.626914 48.103533 
L 265.665735 47.274754 
Q 265.335011 47.756683 264.865027 47.972428 
Q 264.395042 48.188174 263.731707 48.157102 
Q 262.893563 48.117842 262.419312 47.623235 
Q 261.946621 47.128701 261.983614 46.338942 
Q 262.026749 45.418076 262.665194 44.978718 
Q 263.305199 44.539433 264.528857 44.596751 
L 265.788414 44.655751 
L 265.792581 44.566786 
Q 265.821606 43.947153 265.430105 43.58938 
Q 265.038604 43.231607 264.301911 43.197099 
Q 263.833675 43.175167 263.383586 43.266707 
Q 262.935058 43.358321 262.515604 43.563919 
L 262.554498 42.73358 
Q 263.055066 42.566193 263.523007 42.49426 
Q 263.991021 42.420765 264.429602 42.441309 
Q 265.615802 42.496872 266.172292 43.139239 
Q 266.728856 43.780045 266.670368 45.028676 
z
M 273.068522 45.146928 
L 272.914041 48.444874 
L 272.016588 48.402836 
L 272.16968 45.134544 
Q 272.206015 44.358832 271.921207 43.960695 
Q 271.636473 43.560997 271.032447 43.532703 
Q 270.30512 43.498634 269.863554 43.942522 
Q 269.422061 44.384849 269.384556 45.185533 
L 269.239945 48.272773 
L 268.337809 48.230516 
L 268.593693 42.767756 
L 269.495829 42.810013 
L 269.456057 43.659082 
Q 269.802243 43.181007 270.249109 42.957921 
Q 270.697535 42.734909 271.268783 42.761667 
Q 272.209939 42.805752 272.664952 43.410518 
Q 273.121527 44.015356 273.068522 45.146928 
z
" clip-path="url(#paf97c93056)" style="fill: #1f77b4; stroke: #ffffff; stroke-width: 5"/>
    <path d="M 209.070099 38.718818 
L 209.021481 39.756742 
Q 208.545303 39.269866 207.992532 39.015598 
Q 207.439834 38.75977 206.806154 38.730087 
Q 205.557523 38.671599 204.858437 39.403753 
Q 204.159352 40.135907 204.091725 41.579637 
Q 204.024318 43.018684 204.651902 43.812981 
Q 205.279487 44.607279 206.528117 44.665766 
Q 207.161798 44.695449 207.73599 44.492406 
Q 208.310181 44.289362 208.829787 43.84913 
L 208.781534 44.879251 
Q 208.248463 45.206229 207.661149 45.355474 
Q 207.075469 45.503232 206.432424 45.473111 
Q 204.777988 45.395614 203.873282 44.339626 
Q 202.97021 43.28215 203.05224 41.530946 
Q 203.134488 39.775058 204.132384 38.808191 
Q 205.131913 37.839836 206.786349 37.917333 
Q 207.438759 37.947893 208.008135 38.148191 
Q 208.579073 38.348562 209.070099 38.718818 
z
M 212.580497 40.774385 
Q 211.859413 40.740608 211.413168 41.284386 
Q 210.966923 41.828164 210.92101 42.808339 
Q 210.875097 43.788515 211.265435 44.37148 
Q 211.657334 44.954518 212.383101 44.988514 
Q 213.101063 45.022144 213.545821 44.476732 
Q 213.992212 43.929833 214.037905 42.95434 
Q 214.08338 41.983529 213.690139 41.395736 
Q 213.29846 40.808015 212.580497 40.774385 
z
M 212.616102 40.014281 
Q 213.786693 40.069113 214.419033 40.862069 
Q 215.053007 41.653537 214.989986 42.998937 
Q 214.927185 44.339654 214.221783 45.073077 
Q 213.518015 45.805011 212.347423 45.750179 
Q 211.172149 45.695127 210.541443 44.900683 
Q 209.912371 44.104752 209.975172 42.764035 
Q 210.038193 41.418635 210.738694 40.689676 
Q 211.440828 39.959229 212.616102 40.014281 
z
M 216.357988 43.635518 
L 216.512908 40.328207 
L 217.410361 40.370245 
L 217.25705 43.643219 
Q 217.220714 44.418931 217.503742 44.821678 
Q 217.788404 45.222937 218.39399 45.251303 
Q 219.119756 45.285299 219.562883 44.841485 
Q 220.00757 44.397743 220.045076 43.597059 
L 220.190126 40.500454 
L 221.087579 40.542492 
L 220.831695 46.005252 
L 219.934241 45.963214 
L 219.973574 45.12351 
Q 219.624047 45.606122 219.180377 45.827792 
Q 218.738267 46.049536 218.167019 46.022778 
Q 217.225863 45.978693 216.764752 45.370514 
Q 216.305203 44.762408 216.357988 43.635518 
z
M 218.77751 40.302891 
L 218.77751 40.302891 
z
M 223.58624 45.313068 
L 223.450548 48.209892 
L 222.548412 48.167634 
L 222.901606 40.627464 
L 223.803742 40.669722 
L 223.76492 41.4985 
Q 224.071794 41.02484 224.513611 40.80934 
Q 224.957063 40.592351 225.556405 40.620425 
Q 226.552189 40.667069 227.136389 41.485926 
Q 227.72215 42.304856 227.661834 43.592507 
Q 227.601519 44.880157 226.941697 45.642306 
Q 226.28351 46.402968 225.287727 46.356324 
Q 224.688384 46.328249 224.267158 46.070758 
Q 223.847493 45.81334 223.58624 45.313068 
z
M 226.730043 43.54886 
Q 226.776395 42.55932 226.395422 41.976794 
Q 226.014449 41.394267 225.302729 41.360929 
Q 224.589449 41.327518 224.15569 41.871881 
Q 223.721932 42.416244 223.67558 43.405784 
Q 223.629228 44.395324 224.010202 44.97785 
Q 224.391175 45.560377 225.104455 45.593788 
Q 225.816175 45.627126 226.249933 45.082763 
Q 226.683692 44.5384 226.730043 43.54886 
z
M 229.376296 38.798726 
L 230.273749 38.840765 
L 229.918216 46.43088 
L 229.020762 46.388842 
L 229.376296 38.798726 
z
M 232.051924 41.05608 
L 232.949378 41.098118 
L 232.693493 46.560878 
L 231.79604 46.51884 
L 232.051924 41.05608 
z
M 232.151573 38.928725 
L 233.049027 38.970763 
L 232.995729 40.108578 
L 232.098276 40.06654 
L 232.151573 38.928725 
z
M 239.267693 43.563642 
L 239.113212 46.861588 
L 238.215759 46.81955 
L 238.368851 43.551259 
Q 238.405186 42.775547 238.120378 42.377409 
Q 237.835643 41.977711 237.231618 41.949418 
Q 236.504291 41.915349 236.062725 42.359236 
Q 235.621232 42.801563 235.583727 43.602248 
L 235.439116 46.689488 
L 234.53698 46.64723 
L 234.792864 41.18447 
L 235.695 41.226727 
L 235.655228 42.075796 
Q 236.001414 41.597721 236.44828 41.374636 
Q 236.896705 41.151623 237.467954 41.178382 
Q 238.40911 41.222467 238.864123 41.827232 
Q 239.320698 42.43207 239.267693 43.563642 
z
M 244.627702 44.31839 
Q 244.673396 43.342897 244.295789 42.788684 
Q 243.919816 42.232984 243.192489 42.198915 
Q 242.471404 42.165138 242.043571 42.683187 
Q 241.615811 43.199675 241.570117 44.175168 
Q 241.524643 45.145978 241.902176 45.701752 
Q 242.27971 46.257526 243.000794 46.291302 
Q 243.728122 46.325372 244.154394 45.80725 
Q 244.582228 45.289201 244.627702 44.31839 
z
M 245.425945 46.478418 
Q 245.360658 47.872203 244.709149 48.523682 
Q 244.059201 49.175234 242.780915 49.115357 
Q 242.307996 49.093205 241.891434 49.003303 
Q 241.474872 48.913401 241.086865 48.74819 
L 241.127733 47.875709 
Q 241.512597 48.108034 241.893359 48.227543 
Q 242.274049 48.348614 242.673611 48.36733 
Q 243.557017 48.40871 244.017166 47.968821 
Q 244.477315 47.528932 244.520962 46.597142 
L 244.541798 46.152317 
Q 244.241314 46.623148 243.796228 46.841624 
Q 243.351143 47.0601 242.745557 47.031733 
Q 241.74197 46.984724 241.162843 46.191132 
Q 240.58379 45.395979 240.643009 44.131741 
Q 240.702374 42.86438 241.353148 42.128399 
Q 242.003996 41.390857 243.007583 41.437867 
Q 243.613169 41.466233 244.035883 41.725359 
Q 244.458596 41.984484 244.713826 42.479781 
L 244.752647 41.651002 
L 245.6501 41.69304 
L 245.425945 46.478418 
z
M 255.15269 40.553609 
L 255.107654 41.515055 
Q 254.559906 41.220353 254.068155 41.065925 
Q 253.576478 40.909936 253.112924 40.888222 
Q 252.309118 40.85057 251.857475 41.142257 
Q 251.405832 41.433944 251.378855 42.009875 
Q 251.356191 42.49372 251.634946 42.753923 
Q 251.913774 43.012565 252.716732 43.201906 
L 253.30569 43.351502 
Q 254.397737 43.613824 254.897378 44.167496 
Q 255.397018 44.721168 255.355492 45.607696 
Q 255.30585 46.667472 254.570103 47.180483 
Q 253.835917 47.693567 252.465544 47.629377 
Q 251.948923 47.605177 251.370671 47.460775 
Q 250.793981 47.316446 250.180412 47.057766 
L 250.227934 46.043253 
Q 250.811558 46.406897 251.379447 46.605561 
Q 251.947409 46.802665 252.50305 46.828692 
Q 253.345875 46.868171 253.820247 46.558778 
Q 254.294691 46.247825 254.323496 45.632874 
Q 254.348573 45.097524 254.03343 44.779304 
Q 253.718287 44.461085 252.974639 44.274523 
L 252.379219 44.129316 
Q 251.287537 43.85919 250.816261 43.367851 
Q 250.346545 42.876585 250.385659 42.041563 
Q 250.430914 41.075435 251.137445 40.55167 
Q 251.843976 40.027905 253.037979 40.083834 
Q 253.551479 40.107887 254.07776 40.226392 
Q 254.605676 40.343409 255.15269 40.553609 
z
M 260.936618 42.61869 
L 260.897285 43.458395 
Q 260.526322 43.229849 260.148827 43.107365 
Q 259.771332 42.98488 259.381135 42.966602 
Q 258.507093 42.925661 257.997295 43.457077 
Q 257.48913 43.987005 257.442267 44.98747 
Q 257.395403 45.987936 257.851733 46.564607 
Q 258.309697 47.13979 259.183738 47.180732 
Q 259.573936 47.199009 259.961227 47.112348 
Q 260.348519 47.025687 260.739221 46.83282 
L 260.700327 47.663159 
Q 260.315988 47.820348 259.909211 47.88889 
Q 259.503921 47.959066 259.049731 47.937791 
Q 257.815147 47.879961 257.124155 47.07018 
Q 256.434724 46.260472 256.496429 44.943166 
Q 256.559011 43.607131 257.328406 42.876706 
Q 258.099434 42.144794 259.37772 42.204671 
Q 259.791329 42.224045 260.182187 42.328385 
Q 260.573119 42.431164 260.936618 42.61869 
z
M 264.862743 45.316287 
Q 263.774874 45.265329 263.343397 45.493828 
Q 262.91192 45.722327 262.883773 46.323231 
Q 262.861401 46.800832 263.163521 47.096542 
Q 263.465714 47.390692 264.005746 47.415988 
Q 264.753364 47.451007 265.229216 46.943029 
Q 265.705069 46.43505 265.746156 45.557887 
L 265.755514 45.358106 
L 264.862743 45.316287 
z
M 266.670368 45.028676 
L 266.524368 48.145571 
L 265.626914 48.103533 
L 265.665735 47.274754 
Q 265.335011 47.756683 264.865027 47.972428 
Q 264.395042 48.188174 263.731707 48.157102 
Q 262.893563 48.117842 262.419312 47.623235 
Q 261.946621 47.128701 261.983614 46.338942 
Q 262.026749 45.418076 262.665194 44.978718 
Q 263.305199 44.539433 264.528857 44.596751 
L 265.788414 44.655751 
L 265.792581 44.566786 
Q 265.821606 43.947153 265.430105 43.58938 
Q 265.038604 43.231607 264.301911 43.197099 
Q 263.833675 43.175167 263.383586 43.266707 
Q 262.935058 43.358321 262.515604 43.563919 
L 262.554498 42.73358 
Q 263.055066 42.566193 263.523007 42.49426 
Q 263.991021 42.420765 264.429602 42.441309 
Q 265.615802 42.496872 266.172292 43.139239 
Q 266.728856 43.780045 266.670368 45.028676 
z
M 273.068522 45.146928 
L 272.914041 48.444874 
L 272.016588 48.402836 
L 272.16968 45.134544 
Q 272.206015 44.358832 271.921207 43.960695 
Q 271.636473 43.560997 271.032447 43.532703 
Q 270.30512 43.498634 269.863554 43.942522 
Q 269.422061 44.384849 269.384556 45.185533 
L 269.239945 48.272773 
L 268.337809 48.230516 
L 268.593693 42.767756 
L 269.495829 42.810013 
L 269.456057 43.659082 
Q 269.802243 43.181007 270.249109 42.957921 
Q 270.697535 42.734909 271.268783 42.761667 
Q 272.209939 42.805752 272.664952 43.410518 
Q 273.121527 44.015356 273.068522 45.146928 
z
" clip-path="url(#paf97c93056)" style="fill: #1f77b4"/>
   </g>
   <g id="patch_3">
    <path d="M 31.88 174.04 
L 31.88 10.8 
" style="fill: none; stroke: #000000; stroke-width: 0.8; stroke-linejoin: miter; stroke-linecap: square"/>
   </g>
   <g id="patch_4">
    <path d="M 277.2 174.04 
L 277.2 10.8 
" style="fill: none; stroke: #000000; stroke-width: 0.8; stroke-linejoin: miter; stroke-linecap: square"/>
   </g>
   <g id="patch_5">
    <path d="M 31.88 174.04 
L 277.2 174.04 
" style="fill: none; stroke: #000000; stroke-width: 0.8; stroke-linejoin: miter; stroke-linecap: square"/>
   </g>
   <g id="patch_6">
    <path d="M 31.88 10.8 
L 277.2 10.8 
" style="fill: none; stroke: #000000; stroke-width: 0.8; stroke-linejoin: miter; stroke-linecap: square"/>
   </g>
  </g>
 </g>
 <defs>
  <clipPath id="paf97c93056">
   <rect x="31.88" y="10.8" width="245.32" height="163.24"/>
  </clipPath>
 </defs>
</svg>
