<?xml version="1.0" encoding="UTF-8" standalone="no"?>
<svg
   xmlns:dc="http://purl.org/dc/elements/1.1/"
   xmlns:cc="http://creativecommons.org/ns#"
   xmlns:rdf="http://www.w3.org/1999/02/22-rdf-syntax-ns#"
   xmlns:svg="http://www.w3.org/2000/svg"
   xmlns="http://www.w3.org/2000/svg"
   xmlns:xlink="http://www.w3.org/1999/xlink"
   xmlns:sodipodi="http://sodipodi.sourceforge.net/DTD/sodipodi-0.dtd"
   xmlns:inkscape="http://www.inkscape.org/namespaces/inkscape"
   width="288pt"
   height="216pt"
   viewBox="0 0 288 216"
   version="1.1"
   id="svg170"
   sodipodi:docname="3LevelBareProbe.svg"
   inkscape:version="1.0.2 (e86c870879, 2021-01-15)">
  <sodipodi:namedview
     pagecolor="#ffffff"
     bordercolor="#666666"
     borderopacity="1"
     objecttolerance="10"
     gridtolerance="10"
     guidetolerance="10"
     inkscape:pageopacity="0"
     inkscape:pageshadow="2"
     inkscape:window-width="1600"
     inkscape:window-height="835"
     id="namedview172"
     showgrid="false"
     inkscape:zoom="1.6474606"
     inkscape:cx="145.83525"
     inkscape:cy="156.00046"
     inkscape:window-x="0"
     inkscape:window-y="0"
     inkscape:window-maximized="1"
     inkscape:current-layer="axes_1" />
  <metadata
     id="metadata2">
    <rdf:RDF>
      <cc:Work>
        <dc:type
           rdf:resource="http://purl.org/dc/dcmitype/StillImage" />
        <dc:date>2023-06-12T16:01:39.122669</dc:date>
        <dc:format>image/svg+xml</dc:format>
        <dc:creator>
          <cc:Agent>
            <dc:title>Matplotlib v3.6.2, https://matplotlib.org/</dc:title>
          </cc:Agent>
        </dc:creator>
        <dc:title></dc:title>
      </cc:Work>
    </rdf:RDF>
  </metadata>
  <defs
     id="defs6">
    <style
       type="text/css"
       id="style4">*{stroke-linejoin: round; stroke-linecap: butt}</style>
  </defs>
  <g
     id="figure_1">
    <g
       id="patch_1">
      <path
         d="M 0 216  L 288 216  L 288 0  L 0 0  z "
         style="fill: #ffffff"
         id="path8" />
    </g>
    <g
       id="axes_1">
      <g
         id="patch_2">
        <path
           d="M 31.88 174.04  L 277.2 174.04  L 277.2 10.8  L 31.88 10.8  z "
           style="fill: #ffffff"
           id="path11" />
      </g>
      <g
         id="matplotlib.axis_1">
        <g
           id="xtick_1">
          <g
             id="line2d_1">
            <defs
               id="defs15">
              <path
                 id="m4d40eea386"
                 d="M 0 0  L 0 3.5  "
                 style="stroke: #000000; stroke-width: 0.8" />
            </defs>
            <g
               id="g19">
              <use
                 xlink:href="#m4d40eea386"
                 x="154.54"
                 y="174.04"
                 style="stroke: #000000; stroke-width: 0.8"
                 id="use17" />
            </g>
          </g>
          <g
             id="text_1">
            <!-- 0 -->
            <g
               transform="translate(151.35875 188.638438) scale(0.1 -0.1)"
               id="g27">
              <defs
                 id="defs23">
                <path
                   id="DejaVuSans-30"
                   d="M 2034 4250  Q 1547 4250 1301 3770  Q 1056 3291 1056 2328  Q 1056 1369 1301 889  Q 1547 409 2034 409  Q 2525 409 2770 889  Q 3016 1369 3016 2328  Q 3016 3291 2770 3770  Q 2525 4250 2034 4250  z M 2034 4750  Q 2819 4750 3233 4129  Q 3647 3509 3647 2328  Q 3647 1150 3233 529  Q 2819 -91 2034 -91  Q 1250 -91 836 529  Q 422 1150 422 2328  Q 422 3509 836 4129  Q 1250 4750 2034 4750  z "
                   transform="scale(0.015625)" />
              </defs>
              <use
                 xlink:href="#DejaVuSans-30"
                 id="use25" />
            </g>
          </g>
        </g>
        <g
           id="text_2">
          <!-- Probe Detuning -->
          <g
             transform="translate(115.814219 202.316563) scale(0.1 -0.1)"
             id="g73">
            <defs
               id="defs43">
              <path
                 id="DejaVuSans-50"
                 d="M 1259 4147  L 1259 2394  L 2053 2394  Q 2494 2394 2734 2622  Q 2975 2850 2975 3272  Q 2975 3691 2734 3919  Q 2494 4147 2053 4147  L 1259 4147  z M 628 4666  L 2053 4666  Q 2838 4666 3239 4311  Q 3641 3956 3641 3272  Q 3641 2581 3239 2228  Q 2838 1875 2053 1875  L 1259 1875  L 1259 0  L 628 0  L 628 4666  z "
                 transform="scale(0.015625)" />
              <path
                 id="DejaVuSans-72"
                 d="M 2631 2963  Q 2534 3019 2420 3045  Q 2306 3072 2169 3072  Q 1681 3072 1420 2755  Q 1159 2438 1159 1844  L 1159 0  L 581 0  L 581 3500  L 1159 3500  L 1159 2956  Q 1341 3275 1631 3429  Q 1922 3584 2338 3584  Q 2397 3584 2469 3576  Q 2541 3569 2628 3553  L 2631 2963  z "
                 transform="scale(0.015625)" />
              <path
                 id="DejaVuSans-6f"
                 d="M 1959 3097  Q 1497 3097 1228 2736  Q 959 2375 959 1747  Q 959 1119 1226 758  Q 1494 397 1959 397  Q 2419 397 2687 759  Q 2956 1122 2956 1747  Q 2956 2369 2687 2733  Q 2419 3097 1959 3097  z M 1959 3584  Q 2709 3584 3137 3096  Q 3566 2609 3566 1747  Q 3566 888 3137 398  Q 2709 -91 1959 -91  Q 1206 -91 779 398  Q 353 888 353 1747  Q 353 2609 779 3096  Q 1206 3584 1959 3584  z "
                 transform="scale(0.015625)" />
              <path
                 id="DejaVuSans-62"
                 d="M 3116 1747  Q 3116 2381 2855 2742  Q 2594 3103 2138 3103  Q 1681 3103 1420 2742  Q 1159 2381 1159 1747  Q 1159 1113 1420 752  Q 1681 391 2138 391  Q 2594 391 2855 752  Q 3116 1113 3116 1747  z M 1159 2969  Q 1341 3281 1617 3432  Q 1894 3584 2278 3584  Q 2916 3584 3314 3078  Q 3713 2572 3713 1747  Q 3713 922 3314 415  Q 2916 -91 2278 -91  Q 1894 -91 1617 61  Q 1341 213 1159 525  L 1159 0  L 581 0  L 581 4863  L 1159 4863  L 1159 2969  z "
                 transform="scale(0.015625)" />
              <path
                 id="DejaVuSans-65"
                 d="M 3597 1894  L 3597 1613  L 953 1613  Q 991 1019 1311 708  Q 1631 397 2203 397  Q 2534 397 2845 478  Q 3156 559 3463 722  L 3463 178  Q 3153 47 2828 -22  Q 2503 -91 2169 -91  Q 1331 -91 842 396  Q 353 884 353 1716  Q 353 2575 817 3079  Q 1281 3584 2069 3584  Q 2775 3584 3186 3129  Q 3597 2675 3597 1894  z M 3022 2063  Q 3016 2534 2758 2815  Q 2500 3097 2075 3097  Q 1594 3097 1305 2825  Q 1016 2553 972 2059  L 3022 2063  z "
                 transform="scale(0.015625)" />
              <path
                 id="DejaVuSans-20"
                 transform="scale(0.015625)" />
              <path
                 id="DejaVuSans-44"
                 d="M 1259 4147  L 1259 519  L 2022 519  Q 2988 519 3436 956  Q 3884 1394 3884 2338  Q 3884 3275 3436 3711  Q 2988 4147 2022 4147  L 1259 4147  z M 628 4666  L 1925 4666  Q 3281 4666 3915 4102  Q 4550 3538 4550 2338  Q 4550 1131 3912 565  Q 3275 0 1925 0  L 628 0  L 628 4666  z "
                 transform="scale(0.015625)" />
              <path
                 id="DejaVuSans-74"
                 d="M 1172 4494  L 1172 3500  L 2356 3500  L 2356 3053  L 1172 3053  L 1172 1153  Q 1172 725 1289 603  Q 1406 481 1766 481  L 2356 481  L 2356 0  L 1766 0  Q 1100 0 847 248  Q 594 497 594 1153  L 594 3053  L 172 3053  L 172 3500  L 594 3500  L 594 4494  L 1172 4494  z "
                 transform="scale(0.015625)" />
              <path
                 id="DejaVuSans-75"
                 d="M 544 1381  L 544 3500  L 1119 3500  L 1119 1403  Q 1119 906 1312 657  Q 1506 409 1894 409  Q 2359 409 2629 706  Q 2900 1003 2900 1516  L 2900 3500  L 3475 3500  L 3475 0  L 2900 0  L 2900 538  Q 2691 219 2414 64  Q 2138 -91 1772 -91  Q 1169 -91 856 284  Q 544 659 544 1381  z M 1991 3584  L 1991 3584  z "
                 transform="scale(0.015625)" />
              <path
                 id="DejaVuSans-6e"
                 d="M 3513 2113  L 3513 0  L 2938 0  L 2938 2094  Q 2938 2591 2744 2837  Q 2550 3084 2163 3084  Q 1697 3084 1428 2787  Q 1159 2491 1159 1978  L 1159 0  L 581 0  L 581 3500  L 1159 3500  L 1159 2956  Q 1366 3272 1645 3428  Q 1925 3584 2291 3584  Q 2894 3584 3203 3211  Q 3513 2838 3513 2113  z "
                 transform="scale(0.015625)" />
              <path
                 id="DejaVuSans-69"
                 d="M 603 3500  L 1178 3500  L 1178 0  L 603 0  L 603 3500  z M 603 4863  L 1178 4863  L 1178 4134  L 603 4134  L 603 4863  z "
                 transform="scale(0.015625)" />
              <path
                 id="DejaVuSans-67"
                 d="M 2906 1791  Q 2906 2416 2648 2759  Q 2391 3103 1925 3103  Q 1463 3103 1205 2759  Q 947 2416 947 1791  Q 947 1169 1205 825  Q 1463 481 1925 481  Q 2391 481 2648 825  Q 2906 1169 2906 1791  z M 3481 434  Q 3481 -459 3084 -895  Q 2688 -1331 1869 -1331  Q 1566 -1331 1297 -1286  Q 1028 -1241 775 -1147  L 775 -588  Q 1028 -725 1275 -790  Q 1522 -856 1778 -856  Q 2344 -856 2625 -561  Q 2906 -266 2906 331  L 2906 616  Q 2728 306 2450 153  Q 2172 0 1784 0  Q 1141 0 747 490  Q 353 981 353 1791  Q 353 2603 747 3093  Q 1141 3584 1784 3584  Q 2172 3584 2450 3431  Q 2728 3278 2906 2969  L 2906 3500  L 3481 3500  L 3481 434  z "
                 transform="scale(0.015625)" />
            </defs>
            <use
               xlink:href="#DejaVuSans-50"
               id="use45" />
            <use
               xlink:href="#DejaVuSans-72"
               x="58.552734"
               id="use47" />
            <use
               xlink:href="#DejaVuSans-6f"
               x="97.416016"
               id="use49" />
            <use
               xlink:href="#DejaVuSans-62"
               x="158.597656"
               id="use51" />
            <use
               xlink:href="#DejaVuSans-65"
               x="222.074219"
               id="use53" />
            <use
               xlink:href="#DejaVuSans-20"
               x="283.597656"
               id="use55" />
            <use
               xlink:href="#DejaVuSans-44"
               x="315.384766"
               id="use57" />
            <use
               xlink:href="#DejaVuSans-65"
               x="392.386719"
               id="use59" />
            <use
               xlink:href="#DejaVuSans-74"
               x="453.910156"
               id="use61" />
            <use
               xlink:href="#DejaVuSans-75"
               x="493.119141"
               id="use63" />
            <use
               xlink:href="#DejaVuSans-6e"
               x="556.498047"
               id="use65" />
            <use
               xlink:href="#DejaVuSans-69"
               x="619.876953"
               id="use67" />
            <use
               xlink:href="#DejaVuSans-6e"
               x="647.660156"
               id="use69" />
            <use
               xlink:href="#DejaVuSans-67"
               x="711.039062"
               id="use71" />
          </g>
        </g>
      </g>
      <g
         id="matplotlib.axis_2">
        <g
           id="ytick_1">
          <g
             id="line2d_2">
            <defs
               id="defs78">
              <path
                 id="m1c7ffbffc9"
                 d="M 0 0  L -3.5 0  "
                 style="stroke: #000000; stroke-width: 0.8" />
            </defs>
            <g
               id="g82">
              <use
                 xlink:href="#m1c7ffbffc9"
                 x="31.88"
                 y="166.620053"
                 style="stroke: #000000; stroke-width: 0.8"
                 id="use80" />
            </g>
          </g>
        </g>
        <g
           id="ytick_2">
          <g
             id="line2d_3">
            <g
               id="g88">
              <use
                 xlink:href="#m1c7ffbffc9"
                 x="31.88"
                 y="139.907632"
                 style="stroke: #000000; stroke-width: 0.8"
                 id="use86" />
            </g>
          </g>
        </g>
        <g
           id="ytick_3">
          <g
             id="line2d_4">
            <g
               id="g94">
              <use
                 xlink:href="#m1c7ffbffc9"
                 x="31.88"
                 y="113.19521"
                 style="stroke: #000000; stroke-width: 0.8"
                 id="use92" />
            </g>
          </g>
        </g>
        <g
           id="ytick_4">
          <g
             id="line2d_5">
            <g
               id="g100">
              <use
                 xlink:href="#m1c7ffbffc9"
                 x="31.88"
                 y="86.482788"
                 style="stroke: #000000; stroke-width: 0.8"
                 id="use98" />
            </g>
          </g>
        </g>
        <g
           id="ytick_5">
          <g
             id="line2d_6">
            <g
               id="g106">
              <use
                 xlink:href="#m1c7ffbffc9"
                 x="31.88"
                 y="59.770366"
                 style="stroke: #000000; stroke-width: 0.8"
                 id="use104" />
            </g>
          </g>
        </g>
        <g
           id="ytick_6">
          <g
             id="line2d_7">
            <g
               id="g112">
              <use
                 xlink:href="#m1c7ffbffc9"
                 x="31.88"
                 y="33.057944"
                 style="stroke: #000000; stroke-width: 0.8"
                 id="use110" />
            </g>
          </g>
        </g>
        <g
           id="text_3">
          <!-- Absorption -->
          <g
             transform="translate(18.800313 119.485625) rotate(-90) scale(0.1 -0.1)"
             id="g141">
            <defs
               id="defs119">
              <path
                 id="DejaVuSans-41"
                 d="M 2188 4044  L 1331 1722  L 3047 1722  L 2188 4044  z M 1831 4666  L 2547 4666  L 4325 0  L 3669 0  L 3244 1197  L 1141 1197  L 716 0  L 50 0  L 1831 4666  z "
                 transform="scale(0.015625)" />
              <path
                 id="DejaVuSans-73"
                 d="M 2834 3397  L 2834 2853  Q 2591 2978 2328 3040  Q 2066 3103 1784 3103  Q 1356 3103 1142 2972  Q 928 2841 928 2578  Q 928 2378 1081 2264  Q 1234 2150 1697 2047  L 1894 2003  Q 2506 1872 2764 1633  Q 3022 1394 3022 966  Q 3022 478 2636 193  Q 2250 -91 1575 -91  Q 1294 -91 989 -36  Q 684 19 347 128  L 347 722  Q 666 556 975 473  Q 1284 391 1588 391  Q 1994 391 2212 530  Q 2431 669 2431 922  Q 2431 1156 2273 1281  Q 2116 1406 1581 1522  L 1381 1569  Q 847 1681 609 1914  Q 372 2147 372 2553  Q 372 3047 722 3315  Q 1072 3584 1716 3584  Q 2034 3584 2315 3537  Q 2597 3491 2834 3397  z "
                 transform="scale(0.015625)" />
              <path
                 id="DejaVuSans-70"
                 d="M 1159 525  L 1159 -1331  L 581 -1331  L 581 3500  L 1159 3500  L 1159 2969  Q 1341 3281 1617 3432  Q 1894 3584 2278 3584  Q 2916 3584 3314 3078  Q 3713 2572 3713 1747  Q 3713 922 3314 415  Q 2916 -91 2278 -91  Q 1894 -91 1617 61  Q 1341 213 1159 525  z M 3116 1747  Q 3116 2381 2855 2742  Q 2594 3103 2138 3103  Q 1681 3103 1420 2742  Q 1159 2381 1159 1747  Q 1159 1113 1420 752  Q 1681 391 2138 391  Q 2594 391 2855 752  Q 3116 1113 3116 1747  z "
                 transform="scale(0.015625)" />
            </defs>
            <use
               xlink:href="#DejaVuSans-41"
               id="use121" />
            <use
               xlink:href="#DejaVuSans-62"
               x="68.408203"
               id="use123" />
            <use
               xlink:href="#DejaVuSans-73"
               x="131.884766"
               id="use125" />
            <use
               xlink:href="#DejaVuSans-6f"
               x="183.984375"
               id="use127" />
            <use
               xlink:href="#DejaVuSans-72"
               x="245.166016"
               id="use129" />
            <use
               xlink:href="#DejaVuSans-70"
               x="286.279297"
               id="use131" />
            <use
               xlink:href="#DejaVuSans-74"
               x="349.755859"
               id="use133" />
            <use
               xlink:href="#DejaVuSans-69"
               x="388.964844"
               id="use135" />
            <use
               xlink:href="#DejaVuSans-6f"
               x="416.748047"
               id="use137" />
            <use
               xlink:href="#DejaVuSans-6e"
               x="477.929688"
               id="use139" />
          </g>
        </g>
      </g>
      <g
         id="line2d_8">
        <path
           d="M 43.030909 154.366665  L 49.721455 152.901697  L 55.668606 151.376355  L 60.872364 149.832487  L 66.076121 148.053751  L 70.536485 146.306811  L 74.996848 144.316799  L 78.713818 142.441601  L 82.430788 140.337569  L 86.147758 137.969672  L 89.864727 135.296959  L 92.838303 132.907501  L 95.811879 130.264669  L 98.785455 127.337241  L 101.75903 124.090558  L 104.732606 120.486602  L 107.706182 116.484388  L 110.679758 112.04086  L 113.653333 107.112551  L 116.626909 101.658377  L 119.600485 95.644019  L 122.574061 89.048468  L 125.547636 81.873269  L 128.521212 74.154867  L 132.238182 63.881067  L 141.158909 38.688701  L 143.389091 33.059799  L 145.619273 28.072144  L 147.106061 25.203429  L 148.592848 22.766415  L 150.079636 20.812101  L 151.566424 19.383334  L 152.309818 18.876627  L 153.053212 18.512554  L 153.796606 18.293247  L 154.54 18.22  L 155.283394 18.293247  L 156.026788 18.512554  L 156.770182 18.876627  L 157.513576 19.383334  L 159.000364 20.812101  L 160.487152 22.766415  L 161.973939 25.203429  L 163.460727 28.072144  L 165.690909 33.059799  L 167.921091 38.688701  L 170.894667 46.846836  L 181.302182 76.131671  L 184.275758 83.720149  L 187.249333 90.752249  L 190.222909 97.201579  L 193.196485 103.073266  L 196.170061 108.392399  L 199.143636 113.195507  L 202.117212 117.52461  L 205.090788 121.423282  L 208.064364 124.934183  L 211.037939 128.097615  L 214.011515 130.95078  L 216.985091 133.527474  L 219.958667 135.858073  L 223.675636 138.466234  L 227.392606 140.778284  L 231.109576 142.833921  L 235.569939 145.009664  L 240.030303 146.914209  L 244.490667 148.588481  L 249.694424 150.295743  L 254.898182 151.779842  L 260.845333 153.248409  L 266.049091 154.366665  L 266.049091 154.366665  "
           clip-path="url(#pdf5eb67497)"
           style="fill: none; stroke: #ff7f0e; stroke-width: 1.5; stroke-linecap: square"
           id="path145" />
      </g>
      <g
         id="patch_3">
        <path
           d="M 31.88 174.04  L 31.88 10.8  "
           style="fill: none; stroke: #000000; stroke-width: 0.8; stroke-linejoin: miter; stroke-linecap: square"
           id="path151" />
      </g>
      <g
         id="patch_4">
        <path
           d="M 277.2 174.04  L 277.2 10.8  "
           style="fill: none; stroke: #000000; stroke-width: 0.8; stroke-linejoin: miter; stroke-linecap: square"
           id="path154" />
      </g>
      <g
         id="patch_5">
        <path
           d="M 31.88 174.04  L 277.2 174.04  "
           style="fill: none; stroke: #000000; stroke-width: 0.8; stroke-linejoin: miter; stroke-linecap: square"
           id="path157" />
      </g>
      <g
         id="patch_6">
        <path
           d="M 31.88 10.8  L 277.2 10.8  "
           style="fill: none; stroke: #000000; stroke-width: 0.8; stroke-linejoin: miter; stroke-linecap: square"
           id="path160" />
      </g>
    </g>
  </g>
  <defs
     id="defs168">
    <clipPath
       id="pdf5eb67497">
      <rect
         x="31.88"
         y="10.8"
         width="245.32"
         height="163.24"
         id="rect165" />
    </clipPath>
  </defs>
</svg>
