<?xml version="1.0" encoding="utf-8" standalone="no"?>
<!DOCTYPE svg PUBLIC "-//W3C//DTD SVG 1.1//EN"
  "http://www.w3.org/Graphics/SVG/1.1/DTD/svg11.dtd">
<svg xmlns:xlink="http://www.w3.org/1999/xlink" width="288pt" height="216pt" viewBox="0 0 288 216" xmlns="http://www.w3.org/2000/svg" version="1.1">
 <metadata>
  <rdf:RDF xmlns:dc="http://purl.org/dc/elements/1.1/" xmlns:cc="http://creativecommons.org/ns#" xmlns:rdf="http://www.w3.org/1999/02/22-rdf-syntax-ns#">
   <cc:Work>
    <dc:type rdf:resource="http://purl.org/dc/dcmitype/StillImage"/>
    <dc:date>2023-06-12T16:01:42.356847</dc:date>
    <dc:format>image/svg+xml</dc:format>
    <dc:creator>
     <cc:Agent>
      <dc:title>Matplotlib v3.6.2, https://matplotlib.org/</dc:title>
     </cc:Agent>
    </dc:creator>
   </cc:Work>
  </rdf:RDF>
 </metadata>
 <defs>
  <style type="text/css">*{stroke-linejoin: round; stroke-linecap: butt}</style>
 </defs>
 <g id="figure_1">
  <g id="patch_1">
   <path d="M 0 216 
L 288 216 
L 288 0 
L 0 0 
z
" style="fill: #ffffff"/>
  </g>
  <g id="axes_1">
   <g id="patch_2">
    <path d="M 31.88 174.04 
L 277.2 174.04 
L 277.2 10.8 
L 31.88 10.8 
z
" style="fill: #ffffff"/>
   </g>
   <g id="matplotlib.axis_1">
    <g id="xtick_1">
     <g id="line2d_1">
      <defs>
       <path id="m54eaec389e" d="M 0 0 
L 0 3.5 
" style="stroke: #000000; stroke-width: 0.8"/>
      </defs>
      <g>
       <use xlink:href="#m54eaec389e" x="154.54" y="174.04" style="stroke: #000000; stroke-width: 0.8"/>
      </g>
     </g>
     <g id="text_1">
      <!-- 0 -->
      <g transform="translate(151.35875 188.638438) scale(0.1 -0.1)">
       <defs>
        <path id="DejaVuSans-30" d="M 2034 4250 
Q 1547 4250 1301 3770 
Q 1056 3291 1056 2328 
Q 1056 1369 1301 889 
Q 1547 409 2034 409 
Q 2525 409 2770 889 
Q 3016 1369 3016 2328 
Q 3016 3291 2770 3770 
Q 2525 4250 2034 4250 
z
M 2034 4750 
Q 2819 4750 3233 4129 
Q 3647 3509 3647 2328 
Q 3647 1150 3233 529 
Q 2819 -91 2034 -91 
Q 1250 -91 836 529 
Q 422 1150 422 2328 
Q 422 3509 836 4129 
Q 1250 4750 2034 4750 
z
" transform="scale(0.015625)"/>
       </defs>
       <use xlink:href="#DejaVuSans-30"/>
      </g>
     </g>
    </g>
    <g id="text_2">
     <!-- Swept Field Detuning -->
     <g transform="translate(101.389219 202.316563) scale(0.1 -0.1)">
      <defs>
       <path id="DejaVuSans-53" d="M 3425 4513 
L 3425 3897 
Q 3066 4069 2747 4153 
Q 2428 4238 2131 4238 
Q 1616 4238 1336 4038 
Q 1056 3838 1056 3469 
Q 1056 3159 1242 3001 
Q 1428 2844 1947 2747 
L 2328 2669 
Q 3034 2534 3370 2195 
Q 3706 1856 3706 1288 
Q 3706 609 3251 259 
Q 2797 -91 1919 -91 
Q 1588 -91 1214 -16 
Q 841 59 441 206 
L 441 856 
Q 825 641 1194 531 
Q 1563 422 1919 422 
Q 2459 422 2753 634 
Q 3047 847 3047 1241 
Q 3047 1584 2836 1778 
Q 2625 1972 2144 2069 
L 1759 2144 
Q 1053 2284 737 2584 
Q 422 2884 422 3419 
Q 422 4038 858 4394 
Q 1294 4750 2059 4750 
Q 2388 4750 2728 4690 
Q 3069 4631 3425 4513 
z
" transform="scale(0.015625)"/>
       <path id="DejaVuSans-77" d="M 269 3500 
L 844 3500 
L 1563 769 
L 2278 3500 
L 2956 3500 
L 3675 769 
L 4391 3500 
L 4966 3500 
L 4050 0 
L 3372 0 
L 2619 2869 
L 1863 0 
L 1184 0 
L 269 3500 
z
" transform="scale(0.015625)"/>
       <path id="DejaVuSans-65" d="M 3597 1894 
L 3597 1613 
L 953 1613 
Q 991 1019 1311 708 
Q 1631 397 2203 397 
Q 2534 397 2845 478 
Q 3156 559 3463 722 
L 3463 178 
Q 3153 47 2828 -22 
Q 2503 -91 2169 -91 
Q 1331 -91 842 396 
Q 353 884 353 1716 
Q 353 2575 817 3079 
Q 1281 3584 2069 3584 
Q 2775 3584 3186 3129 
Q 3597 2675 3597 1894 
z
M 3022 2063 
Q 3016 2534 2758 2815 
Q 2500 3097 2075 3097 
Q 1594 3097 1305 2825 
Q 1016 2553 972 2059 
L 3022 2063 
z
" transform="scale(0.015625)"/>
       <path id="DejaVuSans-70" d="M 1159 525 
L 1159 -1331 
L 581 -1331 
L 581 3500 
L 1159 3500 
L 1159 2969 
Q 1341 3281 1617 3432 
Q 1894 3584 2278 3584 
Q 2916 3584 3314 3078 
Q 3713 2572 3713 1747 
Q 3713 922 3314 415 
Q 2916 -91 2278 -91 
Q 1894 -91 1617 61 
Q 1341 213 1159 525 
z
M 3116 1747 
Q 3116 2381 2855 2742 
Q 2594 3103 2138 3103 
Q 1681 3103 1420 2742 
Q 1159 2381 1159 1747 
Q 1159 1113 1420 752 
Q 1681 391 2138 391 
Q 2594 391 2855 752 
Q 3116 1113 3116 1747 
z
" transform="scale(0.015625)"/>
       <path id="DejaVuSans-74" d="M 1172 4494 
L 1172 3500 
L 2356 3500 
L 2356 3053 
L 1172 3053 
L 1172 1153 
Q 1172 725 1289 603 
Q 1406 481 1766 481 
L 2356 481 
L 2356 0 
L 1766 0 
Q 1100 0 847 248 
Q 594 497 594 1153 
L 594 3053 
L 172 3053 
L 172 3500 
L 594 3500 
L 594 4494 
L 1172 4494 
z
" transform="scale(0.015625)"/>
       <path id="DejaVuSans-20" transform="scale(0.015625)"/>
       <path id="DejaVuSans-46" d="M 628 4666 
L 3309 4666 
L 3309 4134 
L 1259 4134 
L 1259 2759 
L 3109 2759 
L 3109 2228 
L 1259 2228 
L 1259 0 
L 628 0 
L 628 4666 
z
" transform="scale(0.015625)"/>
       <path id="DejaVuSans-69" d="M 603 3500 
L 1178 3500 
L 1178 0 
L 603 0 
L 603 3500 
z
M 603 4863 
L 1178 4863 
L 1178 4134 
L 603 4134 
L 603 4863 
z
" transform="scale(0.015625)"/>
       <path id="DejaVuSans-6c" d="M 603 4863 
L 1178 4863 
L 1178 0 
L 603 0 
L 603 4863 
z
" transform="scale(0.015625)"/>
       <path id="DejaVuSans-64" d="M 2906 2969 
L 2906 4863 
L 3481 4863 
L 3481 0 
L 2906 0 
L 2906 525 
Q 2725 213 2448 61 
Q 2172 -91 1784 -91 
Q 1150 -91 751 415 
Q 353 922 353 1747 
Q 353 2572 751 3078 
Q 1150 3584 1784 3584 
Q 2172 3584 2448 3432 
Q 2725 3281 2906 2969 
z
M 947 1747 
Q 947 1113 1208 752 
Q 1469 391 1925 391 
Q 2381 391 2643 752 
Q 2906 1113 2906 1747 
Q 2906 2381 2643 2742 
Q 2381 3103 1925 3103 
Q 1469 3103 1208 2742 
Q 947 2381 947 1747 
z
" transform="scale(0.015625)"/>
       <path id="DejaVuSans-44" d="M 1259 4147 
L 1259 519 
L 2022 519 
Q 2988 519 3436 956 
Q 3884 1394 3884 2338 
Q 3884 3275 3436 3711 
Q 2988 4147 2022 4147 
L 1259 4147 
z
M 628 4666 
L 1925 4666 
Q 3281 4666 3915 4102 
Q 4550 3538 4550 2338 
Q 4550 1131 3912 565 
Q 3275 0 1925 0 
L 628 0 
L 628 4666 
z
" transform="scale(0.015625)"/>
       <path id="DejaVuSans-75" d="M 544 1381 
L 544 3500 
L 1119 3500 
L 1119 1403 
Q 1119 906 1312 657 
Q 1506 409 1894 409 
Q 2359 409 2629 706 
Q 2900 1003 2900 1516 
L 2900 3500 
L 3475 3500 
L 3475 0 
L 2900 0 
L 2900 538 
Q 2691 219 2414 64 
Q 2138 -91 1772 -91 
Q 1169 -91 856 284 
Q 544 659 544 1381 
z
M 1991 3584 
L 1991 3584 
z
" transform="scale(0.015625)"/>
       <path id="DejaVuSans-6e" d="M 3513 2113 
L 3513 0 
L 2938 0 
L 2938 2094 
Q 2938 2591 2744 2837 
Q 2550 3084 2163 3084 
Q 1697 3084 1428 2787 
Q 1159 2491 1159 1978 
L 1159 0 
L 581 0 
L 581 3500 
L 1159 3500 
L 1159 2956 
Q 1366 3272 1645 3428 
Q 1925 3584 2291 3584 
Q 2894 3584 3203 3211 
Q 3513 2838 3513 2113 
z
" transform="scale(0.015625)"/>
       <path id="DejaVuSans-67" d="M 2906 1791 
Q 2906 2416 2648 2759 
Q 2391 3103 1925 3103 
Q 1463 3103 1205 2759 
Q 947 2416 947 1791 
Q 947 1169 1205 825 
Q 1463 481 1925 481 
Q 2391 481 2648 825 
Q 2906 1169 2906 1791 
z
M 3481 434 
Q 3481 -459 3084 -895 
Q 2688 -1331 1869 -1331 
Q 1566 -1331 1297 -1286 
Q 1028 -1241 775 -1147 
L 775 -588 
Q 1028 -725 1275 -790 
Q 1522 -856 1778 -856 
Q 2344 -856 2625 -561 
Q 2906 -266 2906 331 
L 2906 616 
Q 2728 306 2450 153 
Q 2172 0 1784 0 
Q 1141 0 747 490 
Q 353 981 353 1791 
Q 353 2603 747 3093 
Q 1141 3584 1784 3584 
Q 2172 3584 2450 3431 
Q 2728 3278 2906 2969 
L 2906 3500 
L 3481 3500 
L 3481 434 
z
" transform="scale(0.015625)"/>
      </defs>
      <use xlink:href="#DejaVuSans-53"/>
      <use xlink:href="#DejaVuSans-77" x="63.476562"/>
      <use xlink:href="#DejaVuSans-65" x="145.263672"/>
      <use xlink:href="#DejaVuSans-70" x="206.787109"/>
      <use xlink:href="#DejaVuSans-74" x="270.263672"/>
      <use xlink:href="#DejaVuSans-20" x="309.472656"/>
      <use xlink:href="#DejaVuSans-46" x="341.259766"/>
      <use xlink:href="#DejaVuSans-69" x="391.529297"/>
      <use xlink:href="#DejaVuSans-65" x="419.3125"/>
      <use xlink:href="#DejaVuSans-6c" x="480.835938"/>
      <use xlink:href="#DejaVuSans-64" x="508.619141"/>
      <use xlink:href="#DejaVuSans-20" x="572.095703"/>
      <use xlink:href="#DejaVuSans-44" x="603.882812"/>
      <use xlink:href="#DejaVuSans-65" x="680.884766"/>
      <use xlink:href="#DejaVuSans-74" x="742.408203"/>
      <use xlink:href="#DejaVuSans-75" x="781.617188"/>
      <use xlink:href="#DejaVuSans-6e" x="844.996094"/>
      <use xlink:href="#DejaVuSans-69" x="908.375"/>
      <use xlink:href="#DejaVuSans-6e" x="936.158203"/>
      <use xlink:href="#DejaVuSans-67" x="999.537109"/>
     </g>
    </g>
   </g>
   <g id="matplotlib.axis_2">
    <g id="ytick_1">
     <g id="line2d_2">
      <defs>
       <path id="ma2d567b79d" d="M 0 0 
L -3.5 0 
" style="stroke: #000000; stroke-width: 0.8"/>
      </defs>
      <g>
       <use xlink:href="#ma2d567b79d" x="31.88" y="166.620053" style="stroke: #000000; stroke-width: 0.8"/>
      </g>
     </g>
    </g>
    <g id="ytick_2">
     <g id="line2d_3">
      <g>
       <use xlink:href="#ma2d567b79d" x="31.88" y="139.894561" style="stroke: #000000; stroke-width: 0.8"/>
      </g>
     </g>
    </g>
    <g id="ytick_3">
     <g id="line2d_4">
      <g>
       <use xlink:href="#ma2d567b79d" x="31.88" y="113.169069" style="stroke: #000000; stroke-width: 0.8"/>
      </g>
     </g>
    </g>
    <g id="ytick_4">
     <g id="line2d_5">
      <g>
       <use xlink:href="#ma2d567b79d" x="31.88" y="86.443577" style="stroke: #000000; stroke-width: 0.8"/>
      </g>
     </g>
    </g>
    <g id="ytick_5">
     <g id="line2d_6">
      <g>
       <use xlink:href="#ma2d567b79d" x="31.88" y="59.718084" style="stroke: #000000; stroke-width: 0.8"/>
      </g>
     </g>
    </g>
    <g id="ytick_6">
     <g id="line2d_7">
      <g>
       <use xlink:href="#ma2d567b79d" x="31.88" y="32.992592" style="stroke: #000000; stroke-width: 0.8"/>
      </g>
     </g>
    </g>
    <g id="text_3">
     <!-- Probe Absorption -->
     <g transform="translate(18.800313 135.255156) rotate(-90) scale(0.1 -0.1)">
      <defs>
       <path id="DejaVuSans-50" d="M 1259 4147 
L 1259 2394 
L 2053 2394 
Q 2494 2394 2734 2622 
Q 2975 2850 2975 3272 
Q 2975 3691 2734 3919 
Q 2494 4147 2053 4147 
L 1259 4147 
z
M 628 4666 
L 2053 4666 
Q 2838 4666 3239 4311 
Q 3641 3956 3641 3272 
Q 3641 2581 3239 2228 
Q 2838 1875 2053 1875 
L 1259 1875 
L 1259 0 
L 628 0 
L 628 4666 
z
" transform="scale(0.015625)"/>
       <path id="DejaVuSans-72" d="M 2631 2963 
Q 2534 3019 2420 3045 
Q 2306 3072 2169 3072 
Q 1681 3072 1420 2755 
Q 1159 2438 1159 1844 
L 1159 0 
L 581 0 
L 581 3500 
L 1159 3500 
L 1159 2956 
Q 1341 3275 1631 3429 
Q 1922 3584 2338 3584 
Q 2397 3584 2469 3576 
Q 2541 3569 2628 3553 
L 2631 2963 
z
" transform="scale(0.015625)"/>
       <path id="DejaVuSans-6f" d="M 1959 3097 
Q 1497 3097 1228 2736 
Q 959 2375 959 1747 
Q 959 1119 1226 758 
Q 1494 397 1959 397 
Q 2419 397 2687 759 
Q 2956 1122 2956 1747 
Q 2956 2369 2687 2733 
Q 2419 3097 1959 3097 
z
M 1959 3584 
Q 2709 3584 3137 3096 
Q 3566 2609 3566 1747 
Q 3566 888 3137 398 
Q 2709 -91 1959 -91 
Q 1206 -91 779 398 
Q 353 888 353 1747 
Q 353 2609 779 3096 
Q 1206 3584 1959 3584 
z
" transform="scale(0.015625)"/>
       <path id="DejaVuSans-62" d="M 3116 1747 
Q 3116 2381 2855 2742 
Q 2594 3103 2138 3103 
Q 1681 3103 1420 2742 
Q 1159 2381 1159 1747 
Q 1159 1113 1420 752 
Q 1681 391 2138 391 
Q 2594 391 2855 752 
Q 3116 1113 3116 1747 
z
M 1159 2969 
Q 1341 3281 1617 3432 
Q 1894 3584 2278 3584 
Q 2916 3584 3314 3078 
Q 3713 2572 3713 1747 
Q 3713 922 3314 415 
Q 2916 -91 2278 -91 
Q 1894 -91 1617 61 
Q 1341 213 1159 525 
L 1159 0 
L 581 0 
L 581 4863 
L 1159 4863 
L 1159 2969 
z
" transform="scale(0.015625)"/>
       <path id="DejaVuSans-41" d="M 2188 4044 
L 1331 1722 
L 3047 1722 
L 2188 4044 
z
M 1831 4666 
L 2547 4666 
L 4325 0 
L 3669 0 
L 3244 1197 
L 1141 1197 
L 716 0 
L 50 0 
L 1831 4666 
z
" transform="scale(0.015625)"/>
       <path id="DejaVuSans-73" d="M 2834 3397 
L 2834 2853 
Q 2591 2978 2328 3040 
Q 2066 3103 1784 3103 
Q 1356 3103 1142 2972 
Q 928 2841 928 2578 
Q 928 2378 1081 2264 
Q 1234 2150 1697 2047 
L 1894 2003 
Q 2506 1872 2764 1633 
Q 3022 1394 3022 966 
Q 3022 478 2636 193 
Q 2250 -91 1575 -91 
Q 1294 -91 989 -36 
Q 684 19 347 128 
L 347 722 
Q 666 556 975 473 
Q 1284 391 1588 391 
Q 1994 391 2212 530 
Q 2431 669 2431 922 
Q 2431 1156 2273 1281 
Q 2116 1406 1581 1522 
L 1381 1569 
Q 847 1681 609 1914 
Q 372 2147 372 2553 
Q 372 3047 722 3315 
Q 1072 3584 1716 3584 
Q 2034 3584 2315 3537 
Q 2597 3491 2834 3397 
z
" transform="scale(0.015625)"/>
      </defs>
      <use xlink:href="#DejaVuSans-50"/>
      <use xlink:href="#DejaVuSans-72" x="58.552734"/>
      <use xlink:href="#DejaVuSans-6f" x="97.416016"/>
      <use xlink:href="#DejaVuSans-62" x="158.597656"/>
      <use xlink:href="#DejaVuSans-65" x="222.074219"/>
      <use xlink:href="#DejaVuSans-20" x="283.597656"/>
      <use xlink:href="#DejaVuSans-41" x="315.384766"/>
      <use xlink:href="#DejaVuSans-62" x="383.792969"/>
      <use xlink:href="#DejaVuSans-73" x="447.269531"/>
      <use xlink:href="#DejaVuSans-6f" x="499.369141"/>
      <use xlink:href="#DejaVuSans-72" x="560.550781"/>
      <use xlink:href="#DejaVuSans-70" x="601.664062"/>
      <use xlink:href="#DejaVuSans-74" x="665.140625"/>
      <use xlink:href="#DejaVuSans-69" x="704.349609"/>
      <use xlink:href="#DejaVuSans-6f" x="732.132812"/>
      <use xlink:href="#DejaVuSans-6e" x="793.314453"/>
     </g>
    </g>
   </g>
   <g id="line2d_8">
    <path d="M 43.030909 154.202999 
L 49.721455 152.697148 
L 55.668606 151.124349 
L 60.872364 149.527353 
L 66.076121 147.681033 
L 70.536485 145.861055 
L 74.996848 143.779772 
L 78.713818 141.810679 
L 82.430788 139.592153 
L 86.147758 137.083803 
L 89.121333 134.836563 
L 92.094909 132.344852 
L 95.068485 129.576073 
L 98.042061 126.493073 
L 101.015636 123.053721 
L 103.989212 119.210609 
L 106.962788 114.911023 
L 109.936364 110.097394 
L 112.166545 106.113123 
L 114.396727 101.779009 
L 116.626909 97.069421 
L 118.857091 91.960977 
L 121.830667 84.4977 
L 124.804242 76.271351 
L 127.777818 67.305636 
L 131.494788 55.22015 
L 138.928727 30.506433 
L 140.415515 26.20091 
L 141.902303 22.488675 
L 142.645697 20.94478 
L 143.389091 19.673337 
L 144.132485 18.737921 
L 144.875879 18.22 
L 145.619273 18.226242 
L 146.362667 18.899441 
L 147.106061 20.435024 
L 147.849455 23.106061 
L 148.592848 27.300774 
L 149.336242 33.576637 
L 150.079636 42.729584 
L 150.82303 55.850067 
L 151.566424 74.242768 
L 152.309818 98.823227 
L 153.796606 155.114719 
L 154.54 166.62 
L 155.283394 155.114719 
L 157.513576 74.242768 
L 158.25697 55.850067 
L 159.000364 42.729584 
L 159.743758 33.576637 
L 160.487152 27.300774 
L 161.230545 23.106061 
L 161.973939 20.435024 
L 162.717333 18.899441 
L 163.460727 18.226242 
L 164.204121 18.22 
L 164.947515 18.737921 
L 165.690909 19.673337 
L 166.434303 20.94478 
L 167.921091 24.254403 
L 169.407879 28.294352 
L 171.638061 35.194228 
L 176.098424 50.200304 
L 180.558788 64.958063 
L 183.532364 74.096942 
L 186.505939 82.512686 
L 189.479515 90.166081 
L 192.453091 97.069421 
L 195.426667 103.264196 
L 198.400242 108.806551 
L 201.373818 113.758149 
L 204.347394 118.180679 
L 207.32097 122.132766 
L 210.294545 125.668403 
L 213.268121 128.836339 
L 216.241697 131.680003 
L 219.215273 134.237755 
L 222.188848 136.543288 
L 225.905818 139.115085 
L 229.622788 141.388123 
L 233.339758 143.40419 
L 237.800121 145.533526 
L 242.260485 147.394046 
L 246.720848 149.027327 
L 251.924606 150.690913 
L 257.871758 152.326509 
L 263.818909 153.728652 
L 266.049091 154.202999 
L 266.049091 154.202999 
" clip-path="url(#pa35e3beccf)" style="fill: none; stroke: #d62728; stroke-width: 1.5; stroke-linecap: square"/>
   </g>
   <g id="line2d_9">
    <path d="M 43.030909 18.226917 
L 92.838303 18.406821 
L 110.679758 18.659937 
L 120.343879 18.988702 
L 126.29103 19.376985 
L 130.751394 19.875442 
L 133.72497 20.396426 
L 135.955152 20.957751 
L 138.185333 21.75657 
L 139.672121 22.492319 
L 141.158909 23.474929 
L 142.645697 24.826398 
L 143.389091 25.699808 
L 144.132485 26.752494 
L 144.875879 28.035713 
L 145.619273 29.619786 
L 146.362667 31.602862 
L 147.106061 34.124445 
L 147.849455 37.386521 
L 148.592848 41.686698 
L 149.336242 47.469501 
L 150.079636 55.40123 
L 150.82303 66.459195 
L 151.566424 81.95558 
L 152.309818 103.16583 
L 153.796606 155.250247 
L 154.54 166.62 
L 155.283394 155.250247 
L 157.513576 81.95558 
L 158.25697 66.459195 
L 159.000364 55.40123 
L 159.743758 47.469501 
L 160.487152 41.686698 
L 161.230545 37.386521 
L 161.973939 34.124445 
L 162.717333 31.602862 
L 163.460727 29.619786 
L 164.204121 28.035713 
L 164.947515 26.752494 
L 166.434303 24.826398 
L 167.921091 23.474929 
L 169.407879 22.492319 
L 170.894667 21.75657 
L 173.124848 20.957751 
L 175.35503 20.396426 
L 178.328606 19.875442 
L 182.045576 19.44376 
L 187.249333 19.066439 
L 194.683273 18.758839 
L 206.577576 18.511871 
L 227.392606 18.333572 
L 266.049091 18.226917 
L 266.049091 18.226917 
" clip-path="url(#pa35e3beccf)" style="fill: none; stroke: #1f77b4; stroke-width: 1.5; stroke-linecap: square"/>
   </g>
   <g id="text_4">
    <path d="M 45.653039 136.723659 
L 46.757396 139.230222 
L 47.892713 138.730017 
Q 48.523286 138.452196 48.722819 137.97499 
Q 48.923783 137.497154 48.657931 136.893748 
Q 48.393969 136.294633 47.905734 136.120447 
Q 47.41893 135.945632 46.788357 136.223454 
L 45.653039 136.723659 
z
M 44.423831 136.379074 
L 46.461397 135.481351 
Q 47.583845 134.986816 48.380867 135.241798 
Q 49.179318 135.49615 49.610225 136.474181 
Q 50.045541 137.462222 49.693117 138.220219 
Q 49.342122 138.977585 48.219673 139.47212 
L 47.084356 139.972325 
L 48.26557 142.653333 
L 47.363321 143.050851 
L 44.423831 136.379074 
z
M 53.718981 135.191518 
Q 53.545005 135.172553 53.36562 135.207194 
Q 53.185605 135.240405 52.989713 135.326713 
Q 52.291936 135.634143 52.118444 136.251837 
Q 51.944951 136.869532 52.31916 137.718875 
L 53.480845 140.355556 
L 52.654379 140.719685 
L 50.449447 135.715138 
L 51.275912 135.351009 
L 51.618621 136.128858 
Q 51.677894 135.558073 51.99554 135.155179 
Q 52.313985 134.750224 52.908811 134.488152 
Q 52.993174 134.450983 53.101164 134.417064 
Q 53.208525 134.381714 53.343003 134.349784 
L 53.718981 135.191518 
z
M 56.230137 133.856342 
Q 55.569537 134.147393 55.412324 134.833042 
Q 55.255112 135.51869 55.65074 136.416649 
Q 56.046368 137.314607 56.655567 137.662586 
Q 57.266195 138.009934 57.931085 137.716993 
Q 58.588826 137.427202 58.743978 136.740754 
Q 58.89993 136.052246 58.506192 135.158577 
Q 58.114344 134.269197 57.500396 133.918189 
Q 56.887877 133.566551 56.230137 133.856342 
z
M 55.923336 133.159995 
Q 56.995739 132.68751 57.915155 133.115655 
Q 58.83537 133.54174 59.378413 134.774289 
Q 59.919567 136.002548 59.614843 136.973446 
Q 59.310919 137.942285 58.238516 138.41477 
Q 57.161823 138.889146 56.243208 138.458941 
Q 55.325392 138.026676 54.784238 136.798417 
Q 54.241195 135.565868 54.543519 134.601149 
Q 54.846644 133.634371 55.923336 133.159995 
z
M 64.333809 132.591011 
Q 63.934401 131.684473 63.333782 131.332715 
Q 62.733163 130.980957 62.081142 131.268228 
Q 61.427691 131.556129 61.281917 132.236737 
Q 61.136144 132.917346 61.535552 133.823884 
Q 61.93496 134.730422 62.535579 135.08218 
Q 63.136199 135.433939 63.78965 135.146037 
Q 64.441671 134.858766 64.587444 134.178158 
Q 64.733217 133.49755 64.333809 132.591011 
z
M 60.765716 132.076582 
Q 60.829398 131.515806 61.128915 131.12602 
Q 61.429232 130.734175 61.978303 130.492263 
Q 62.89056 130.090335 63.778419 130.563117 
Q 64.667708 131.03527 65.187442 132.214913 
Q 65.707176 133.394556 65.456058 134.370863 
Q 65.20574 135.34511 64.293482 135.747038 
Q 63.744412 135.98895 63.252581 135.946115 
Q 62.762179 135.902649 62.305389 135.571186 
L 62.636129 136.321868 
L 61.809663 136.685997 
L 58.746067 129.732535 
L 59.572532 129.368407 
L 60.765716 132.076582 
z
M 70.73782 129.518503 
L 70.914844 129.920296 
L 67.134266 131.585966 
Q 67.56281 132.41137 68.216293 132.654466 
Q 68.869775 132.897561 69.687661 132.537212 
Q 70.160949 132.328689 70.55461 132.016945 
Q 70.948271 131.705202 71.284555 131.278729 
L 71.627264 132.056578 
Q 71.266532 132.439185 70.845292 132.74259 
Q 70.424053 133.045995 69.946476 133.256409 
Q 68.748245 133.784333 67.742237 133.396046 
Q 66.7356 133.00633 66.211456 131.816677 
Q 65.670302 130.588418 66.016252 129.575452 
Q 66.361572 128.561057 67.48831 128.064632 
Q 68.497799 127.619865 69.372117 128.011534 
Q 70.245805 128.401774 70.73782 129.518503 
z
M 69.809177 129.639093 
Q 69.503877 128.969404 68.957946 128.730146 
Q 68.411385 128.489457 67.80369 128.757199 
Q 67.115922 129.06022 66.874044 129.631209 
Q 66.632166 130.202198 66.880462 130.936274 
L 69.809177 129.639093 
z
M 77.380972 122.119861 
L 77.76904 123.000662 
Q 77.14736 122.980887 76.638313 123.061742 
Q 76.128635 123.141167 75.703964 123.328271 
Q 74.96758 123.652711 74.693213 124.11508 
Q 74.418845 124.577449 74.651308 125.105071 
Q 74.846602 125.548331 75.212095 125.657074 
Q 75.576958 125.764387 76.380169 125.576125 
L 76.974088 125.447632 
Q 78.068624 125.195898 78.762625 125.468951 
Q 79.456625 125.742003 79.814454 126.55417 
Q 80.242211 127.525052 79.812113 128.312148 
Q 79.383445 129.098614 78.128018 129.651737 
Q 77.654731 129.860261 77.072711 129.988634 
Q 76.49212 130.116376 75.827565 130.158177 
L 75.418077 129.228761 
Q 76.102594 129.294271 76.699514 129.219094 
Q 77.295804 129.142487 77.804838 128.918214 
Q 78.576968 128.578024 78.863794 128.089677 
Q 79.14999 127.5999 78.901778 127.036531 
Q 78.685695 126.546085 78.261776 126.401616 
Q 77.837857 126.257147 77.088981 126.421471 
L 76.491232 126.556773 
Q 75.393546 126.801358 74.752712 126.57147 
Q 74.113309 126.340953 73.776269 125.575972 
Q 73.386311 124.690882 73.785461 123.907177 
Q 74.184612 123.123471 75.278463 122.641536 
Q 75.74889 122.434272 76.272845 122.305871 
Q 76.7976 122.17541 77.380972 122.119861 
z
M 83.479159 121.39151 
L 83.818089 122.160781 
Q 83.384153 122.121463 82.991626 122.180007 
Q 82.599099 122.238551 82.241631 122.396047 
Q 81.440903 122.748836 81.221287 123.451734 
Q 81.00247 124.152572 81.406288 125.069119 
Q 81.810105 125.985667 82.475578 126.298607 
Q 83.141852 126.609487 83.942579 126.256698 
Q 84.300047 126.099202 84.608157 125.849056 
Q 84.916266 125.598909 85.180107 125.252161 
L 85.515257 126.012853 
Q 85.241216 126.324823 84.907588 126.567431 
Q 84.57602 126.810839 84.159928 126.994163 
Q 83.0289 127.492478 82.04948 127.075403 
Q 81.07149 126.657699 80.539786 125.450888 
Q 80.000522 124.226918 80.363871 123.230191 
Q 80.72802 122.231403 81.899084 121.715449 
Q 82.277999 121.548504 82.674406 121.467762 
Q 83.070182 121.38559 83.479159 121.39151 
z
M 88.195976 122.05719 
Q 87.199356 122.496286 86.914888 122.893101 
Q 86.630419 123.289915 86.872962 123.840415 
Q 87.065736 124.277956 87.467967 124.408076 
Q 87.869567 124.536767 88.364302 124.318794 
Q 89.04921 124.017033 89.24888 123.350242 
Q 89.448549 122.683452 89.0945 121.879864 
L 89.013862 121.696841 
L 88.195976 122.05719 
z
M 89.686102 120.994293 
L 90.944174 123.849744 
L 90.121998 124.211983 
L 89.787478 123.452722 
Q 89.706128 124.031527 89.381503 124.434082 
Q 89.056878 124.836637 88.449183 125.104378 
Q 87.681342 125.442678 87.036389 125.211191 
Q 86.392866 124.979074 86.074096 124.255559 
Q 85.702407 123.411936 86.078212 122.734132 
Q 86.455446 122.055698 87.576465 121.561793 
L 88.730371 121.053399 
L 88.694462 120.971896 
Q 88.444359 120.404238 87.934457 120.258381 
Q 87.424555 120.112524 86.749656 120.409875 
Q 86.320695 120.598869 85.95854 120.881364 
Q 85.597816 121.163229 85.313907 121.534186 
L 84.978757 120.773494 
Q 85.352309 120.400606 85.739181 120.12771 
Q 86.125424 119.853383 86.527218 119.676359 
Q 87.61392 119.197573 88.398334 119.524699 
Q 89.182118 119.850396 89.686102 120.994293 
z
M 95.466737 118.249365 
L 96.797886 121.270682 
L 95.975711 121.632921 
L 94.656531 118.638771 
Q 94.34343 117.928126 93.91106 117.698594 
Q 93.47806 117.467632 92.9247 117.711434 
Q 92.25838 118.005005 92.060849 118.599142 
Q 91.862688 119.191849 92.185868 119.925372 
L 93.43197 122.753657 
L 92.605505 123.117786 
L 90.400572 118.113238 
L 91.227038 117.749109 
L 91.569747 118.526959 
Q 91.666656 117.944713 91.967313 117.545889 
Q 92.2694 117.146434 92.792733 116.915861 
Q 93.654945 116.535983 94.331758 116.874661 
Q 95.010001 117.212709 95.466737 118.249365 
z
" clip-path="url(#pa35e3beccf)" style="fill: #d62728; stroke: #ffffff; stroke-width: 5"/>
    <path d="M 45.653039 136.723659 
L 46.757396 139.230222 
L 47.892713 138.730017 
Q 48.523286 138.452196 48.722819 137.97499 
Q 48.923783 137.497154 48.657931 136.893748 
Q 48.393969 136.294633 47.905734 136.120447 
Q 47.41893 135.945632 46.788357 136.223454 
L 45.653039 136.723659 
z
M 44.423831 136.379074 
L 46.461397 135.481351 
Q 47.583845 134.986816 48.380867 135.241798 
Q 49.179318 135.49615 49.610225 136.474181 
Q 50.045541 137.462222 49.693117 138.220219 
Q 49.342122 138.977585 48.219673 139.47212 
L 47.084356 139.972325 
L 48.26557 142.653333 
L 47.363321 143.050851 
L 44.423831 136.379074 
z
M 53.718981 135.191518 
Q 53.545005 135.172553 53.36562 135.207194 
Q 53.185605 135.240405 52.989713 135.326713 
Q 52.291936 135.634143 52.118444 136.251837 
Q 51.944951 136.869532 52.31916 137.718875 
L 53.480845 140.355556 
L 52.654379 140.719685 
L 50.449447 135.715138 
L 51.275912 135.351009 
L 51.618621 136.128858 
Q 51.677894 135.558073 51.99554 135.155179 
Q 52.313985 134.750224 52.908811 134.488152 
Q 52.993174 134.450983 53.101164 134.417064 
Q 53.208525 134.381714 53.343003 134.349784 
L 53.718981 135.191518 
z
M 56.230137 133.856342 
Q 55.569537 134.147393 55.412324 134.833042 
Q 55.255112 135.51869 55.65074 136.416649 
Q 56.046368 137.314607 56.655567 137.662586 
Q 57.266195 138.009934 57.931085 137.716993 
Q 58.588826 137.427202 58.743978 136.740754 
Q 58.89993 136.052246 58.506192 135.158577 
Q 58.114344 134.269197 57.500396 133.918189 
Q 56.887877 133.566551 56.230137 133.856342 
z
M 55.923336 133.159995 
Q 56.995739 132.68751 57.915155 133.115655 
Q 58.83537 133.54174 59.378413 134.774289 
Q 59.919567 136.002548 59.614843 136.973446 
Q 59.310919 137.942285 58.238516 138.41477 
Q 57.161823 138.889146 56.243208 138.458941 
Q 55.325392 138.026676 54.784238 136.798417 
Q 54.241195 135.565868 54.543519 134.601149 
Q 54.846644 133.634371 55.923336 133.159995 
z
M 64.333809 132.591011 
Q 63.934401 131.684473 63.333782 131.332715 
Q 62.733163 130.980957 62.081142 131.268228 
Q 61.427691 131.556129 61.281917 132.236737 
Q 61.136144 132.917346 61.535552 133.823884 
Q 61.93496 134.730422 62.535579 135.08218 
Q 63.136199 135.433939 63.78965 135.146037 
Q 64.441671 134.858766 64.587444 134.178158 
Q 64.733217 133.49755 64.333809 132.591011 
z
M 60.765716 132.076582 
Q 60.829398 131.515806 61.128915 131.12602 
Q 61.429232 130.734175 61.978303 130.492263 
Q 62.89056 130.090335 63.778419 130.563117 
Q 64.667708 131.03527 65.187442 132.214913 
Q 65.707176 133.394556 65.456058 134.370863 
Q 65.20574 135.34511 64.293482 135.747038 
Q 63.744412 135.98895 63.252581 135.946115 
Q 62.762179 135.902649 62.305389 135.571186 
L 62.636129 136.321868 
L 61.809663 136.685997 
L 58.746067 129.732535 
L 59.572532 129.368407 
L 60.765716 132.076582 
z
M 70.73782 129.518503 
L 70.914844 129.920296 
L 67.134266 131.585966 
Q 67.56281 132.41137 68.216293 132.654466 
Q 68.869775 132.897561 69.687661 132.537212 
Q 70.160949 132.328689 70.55461 132.016945 
Q 70.948271 131.705202 71.284555 131.278729 
L 71.627264 132.056578 
Q 71.266532 132.439185 70.845292 132.74259 
Q 70.424053 133.045995 69.946476 133.256409 
Q 68.748245 133.784333 67.742237 133.396046 
Q 66.7356 133.00633 66.211456 131.816677 
Q 65.670302 130.588418 66.016252 129.575452 
Q 66.361572 128.561057 67.48831 128.064632 
Q 68.497799 127.619865 69.372117 128.011534 
Q 70.245805 128.401774 70.73782 129.518503 
z
M 69.809177 129.639093 
Q 69.503877 128.969404 68.957946 128.730146 
Q 68.411385 128.489457 67.80369 128.757199 
Q 67.115922 129.06022 66.874044 129.631209 
Q 66.632166 130.202198 66.880462 130.936274 
L 69.809177 129.639093 
z
M 77.380972 122.119861 
L 77.76904 123.000662 
Q 77.14736 122.980887 76.638313 123.061742 
Q 76.128635 123.141167 75.703964 123.328271 
Q 74.96758 123.652711 74.693213 124.11508 
Q 74.418845 124.577449 74.651308 125.105071 
Q 74.846602 125.548331 75.212095 125.657074 
Q 75.576958 125.764387 76.380169 125.576125 
L 76.974088 125.447632 
Q 78.068624 125.195898 78.762625 125.468951 
Q 79.456625 125.742003 79.814454 126.55417 
Q 80.242211 127.525052 79.812113 128.312148 
Q 79.383445 129.098614 78.128018 129.651737 
Q 77.654731 129.860261 77.072711 129.988634 
Q 76.49212 130.116376 75.827565 130.158177 
L 75.418077 129.228761 
Q 76.102594 129.294271 76.699514 129.219094 
Q 77.295804 129.142487 77.804838 128.918214 
Q 78.576968 128.578024 78.863794 128.089677 
Q 79.14999 127.5999 78.901778 127.036531 
Q 78.685695 126.546085 78.261776 126.401616 
Q 77.837857 126.257147 77.088981 126.421471 
L 76.491232 126.556773 
Q 75.393546 126.801358 74.752712 126.57147 
Q 74.113309 126.340953 73.776269 125.575972 
Q 73.386311 124.690882 73.785461 123.907177 
Q 74.184612 123.123471 75.278463 122.641536 
Q 75.74889 122.434272 76.272845 122.305871 
Q 76.7976 122.17541 77.380972 122.119861 
z
M 83.479159 121.39151 
L 83.818089 122.160781 
Q 83.384153 122.121463 82.991626 122.180007 
Q 82.599099 122.238551 82.241631 122.396047 
Q 81.440903 122.748836 81.221287 123.451734 
Q 81.00247 124.152572 81.406288 125.069119 
Q 81.810105 125.985667 82.475578 126.298607 
Q 83.141852 126.609487 83.942579 126.256698 
Q 84.300047 126.099202 84.608157 125.849056 
Q 84.916266 125.598909 85.180107 125.252161 
L 85.515257 126.012853 
Q 85.241216 126.324823 84.907588 126.567431 
Q 84.57602 126.810839 84.159928 126.994163 
Q 83.0289 127.492478 82.04948 127.075403 
Q 81.07149 126.657699 80.539786 125.450888 
Q 80.000522 124.226918 80.363871 123.230191 
Q 80.72802 122.231403 81.899084 121.715449 
Q 82.277999 121.548504 82.674406 121.467762 
Q 83.070182 121.38559 83.479159 121.39151 
z
M 88.195976 122.05719 
Q 87.199356 122.496286 86.914888 122.893101 
Q 86.630419 123.289915 86.872962 123.840415 
Q 87.065736 124.277956 87.467967 124.408076 
Q 87.869567 124.536767 88.364302 124.318794 
Q 89.04921 124.017033 89.24888 123.350242 
Q 89.448549 122.683452 89.0945 121.879864 
L 89.013862 121.696841 
L 88.195976 122.05719 
z
M 89.686102 120.994293 
L 90.944174 123.849744 
L 90.121998 124.211983 
L 89.787478 123.452722 
Q 89.706128 124.031527 89.381503 124.434082 
Q 89.056878 124.836637 88.449183 125.104378 
Q 87.681342 125.442678 87.036389 125.211191 
Q 86.392866 124.979074 86.074096 124.255559 
Q 85.702407 123.411936 86.078212 122.734132 
Q 86.455446 122.055698 87.576465 121.561793 
L 88.730371 121.053399 
L 88.694462 120.971896 
Q 88.444359 120.404238 87.934457 120.258381 
Q 87.424555 120.112524 86.749656 120.409875 
Q 86.320695 120.598869 85.95854 120.881364 
Q 85.597816 121.163229 85.313907 121.534186 
L 84.978757 120.773494 
Q 85.352309 120.400606 85.739181 120.12771 
Q 86.125424 119.853383 86.527218 119.676359 
Q 87.61392 119.197573 88.398334 119.524699 
Q 89.182118 119.850396 89.686102 120.994293 
z
M 95.466737 118.249365 
L 96.797886 121.270682 
L 95.975711 121.632921 
L 94.656531 118.638771 
Q 94.34343 117.928126 93.91106 117.698594 
Q 93.47806 117.467632 92.9247 117.711434 
Q 92.25838 118.005005 92.060849 118.599142 
Q 91.862688 119.191849 92.185868 119.925372 
L 93.43197 122.753657 
L 92.605505 123.117786 
L 90.400572 118.113238 
L 91.227038 117.749109 
L 91.569747 118.526959 
Q 91.666656 117.944713 91.967313 117.545889 
Q 92.2694 117.146434 92.792733 116.915861 
Q 93.654945 116.535983 94.331758 116.874661 
Q 95.010001 117.212709 95.466737 118.249365 
z
" clip-path="url(#pa35e3beccf)" style="fill: #d62728"/>
   </g>
   <g id="text_5">
    <path d="M 60.202699 30.23738 
L 60.195251 31.276416 
Q 59.700153 30.808793 59.13774 30.576631 
Q 58.575338 30.342906 57.94098 30.338359 
Q 56.691012 30.3294 56.02149 31.088683 
Q 55.351968 31.847966 55.341608 33.293241 
Q 55.331282 34.733829 55.989851 35.502632 
Q 56.64842 36.271434 57.898388 36.280394 
Q 58.532747 36.284941 59.098441 36.059303 
Q 59.664135 35.833664 60.165886 35.373186 
L 60.158495 36.40441 
Q 59.6388 36.752256 59.057862 36.924659 
Q 58.478498 37.095511 57.834764 37.090896 
Q 56.178557 37.079025 55.232714 36.059719 
Q 54.288444 35.038862 54.30101 33.285782 
Q 54.313609 31.528015 55.272405 30.522361 
Q 56.232774 29.515157 57.888981 29.527028 
Q 58.542089 29.53171 59.118956 29.709286 
Q 59.697386 29.886874 60.202699 30.23738 
z
M 63.791801 32.152218 
Q 63.069944 32.147043 62.645599 32.708079 
Q 62.221255 33.269114 62.214221 34.250339 
Q 62.207188 35.231564 62.620322 35.798602 
Q 63.035018 36.365652 63.761562 36.370859 
Q 64.480293 36.376011 64.903087 35.813402 
Q 65.327454 35.249242 65.334454 34.272704 
Q 65.34142 33.300854 64.925195 32.729106 
Q 64.510532 32.157369 63.791801 32.152218 
z
M 63.797255 31.3913 
Q 64.9691 31.399699 65.632367 32.166973 
Q 66.297208 32.932696 66.287554 34.279536 
Q 66.277934 35.621689 65.602151 36.38249 
Q 64.927941 37.141739 63.756097 37.13334 
Q 62.579564 37.124906 61.91787 36.356081 
Q 61.25775 35.585705 61.267371 34.243552 
Q 61.277025 32.896712 61.948087 32.140565 
Q 62.620722 31.382866 63.797255 31.3913 
z
M 67.679708 34.861405 
L 67.70344 31.550552 
L 68.601855 31.556992 
L 68.578369 34.83347 
Q 68.572803 35.610013 68.871569 36.001227 
Q 69.171909 36.390889 69.778143 36.395235 
Q 70.504687 36.400443 70.929878 35.939416 
Q 71.35663 35.4784 71.362376 34.676858 
L 71.384596 31.576938 
L 72.28301 31.583378 
L 72.243812 37.051987 
L 71.345397 37.045548 
L 71.351423 36.204944 
Q 71.021296 36.701028 70.586759 36.940107 
Q 70.153784 37.179197 69.581923 37.175098 
Q 68.63976 37.168345 68.15491 36.578917 
Q 67.671622 35.989501 67.679708 34.861405 
z
M 69.96526 31.435511 
L 69.96526 31.435511 
z
M 74.968762 36.251186 
L 74.947976 39.151111 
L 74.044874 39.144638 
L 74.098979 31.596394 
L 75.002081 31.602868 
L 74.996134 32.432534 
Q 75.283996 31.947085 75.716926 31.714244 
Q 76.15143 31.479853 76.751414 31.484153 
Q 77.748264 31.491299 78.364456 32.286361 
Q 78.98221 33.081434 78.972971 34.370463 
Q 78.963731 35.659493 78.334631 36.447191 
Q 77.707105 37.233339 76.710256 37.226193 
Q 76.110271 37.221893 75.679172 36.981297 
Q 75.249636 36.740712 74.968762 36.251186 
z
M 78.040182 34.363777 
Q 78.047283 33.373178 77.643524 32.806207 
Q 77.239765 32.239236 76.527283 32.234129 
Q 75.813239 32.22901 75.401394 32.790135 
Q 74.989549 33.35126 74.982448 34.34186 
Q 74.975348 35.332459 75.379107 35.899431 
Q 75.782866 36.466402 76.49691 36.47152 
Q 77.209391 36.476627 77.621236 35.915502 
Q 78.033082 35.354377 78.040182 34.363777 
z
M 80.496111 29.512506 
L 81.394526 29.518946 
L 81.340062 37.117188 
L 80.441648 37.110748 
L 80.496111 29.512506 
z
M 83.259095 31.662053 
L 84.15751 31.668493 
L 84.118311 37.137102 
L 83.219897 37.130662 
L 83.259095 31.662053 
z
M 83.27436 29.53242 
L 84.172775 29.53886 
L 84.16461 30.677893 
L 83.266196 30.671453 
L 83.27436 29.53242 
z
M 90.568569 33.881689 
L 90.544904 37.183167 
L 89.64649 37.176727 
L 89.669941 33.904936 
Q 89.675508 33.128394 89.375145 32.741856 
Q 89.074795 32.353756 88.470123 32.349422 
Q 87.742016 32.344203 87.318388 32.805241 
Q 86.894772 33.264716 86.889026 34.066258 
L 86.866874 37.156804 
L 85.963772 37.15033 
L 86.00297 31.681721 
L 86.906072 31.688194 
L 86.899979 32.538172 
Q 87.226948 32.046753 87.664621 31.806134 
Q 88.103857 31.565526 88.675717 31.569625 
Q 89.617881 31.576379 90.096503 32.162637 
Q 90.576688 32.748906 90.568569 33.881689 
z
M 95.954277 34.423431 
Q 95.961277 33.446894 95.562004 32.908081 
Q 95.164304 32.367716 94.436198 32.362497 
Q 93.714341 32.357323 93.307374 32.89192 
Q 92.900418 33.424954 92.893418 34.401492 
Q 92.886452 35.373342 93.285714 35.913717 
Q 93.684976 36.454093 94.406833 36.459267 
Q 95.134939 36.464486 95.540344 35.929878 
Q 95.947311 35.395281 95.954277 34.423431 
z
M 96.837494 36.550129 
Q 96.827493 37.945406 96.202313 38.622192 
Q 95.578696 39.29899 94.299041 39.289817 
Q 93.825616 39.286424 93.405818 39.2131 
Q 92.986021 39.139777 92.591771 38.990072 
L 92.598032 38.116657 
Q 92.9918 38.333548 93.376999 38.437874 
Q 93.762188 38.543763 94.162177 38.54663 
Q 95.04653 38.552969 95.488885 38.09519 
Q 95.93124 37.637411 95.937926 36.704623 
L 95.941118 36.259322 
Q 95.659528 36.741691 95.223451 36.977634 
Q 94.787373 37.213577 94.181139 37.209231 
Q 93.176477 37.20203 92.566356 36.432012 
Q 91.956246 35.660432 91.965317 34.394839 
Q 91.974411 33.126122 92.595508 32.364929 
Q 93.216616 31.602174 94.221278 31.609375 
Q 94.827512 31.61372 95.260163 31.85589 
Q 95.692813 32.09806 95.96747 32.582854 
L 95.973417 31.753188 
L 96.871832 31.759627 
L 96.837494 36.550129 
z
M 106.321801 30.24451 
L 106.314902 31.206985 
Q 105.755906 30.934222 105.258422 30.799402 
Q 104.760949 30.663021 104.296898 30.659695 
Q 103.492232 30.653927 103.052503 30.963283 
Q 102.612774 31.272639 102.608642 31.849187 
Q 102.60517 32.333549 102.894018 32.582501 
Q 103.182877 32.82989 103.992707 32.987261 
L 104.587131 33.1134 
Q 105.688716 33.332239 106.209906 33.865676 
Q 106.731095 34.399113 106.724734 35.28659 
Q 106.71713 36.347501 106.002291 36.889266 
Q 105.289014 37.431042 103.917174 37.421209 
Q 103.4 37.417502 102.81648 37.296129 
Q 102.234522 37.174767 101.611185 36.940606 
L 101.618465 35.925007 
Q 102.216041 36.265236 102.791357 36.441239 
Q 103.366684 36.61568 103.92292 36.619667 
Q 104.766648 36.625715 105.228385 36.297766 
Q 105.690134 35.968255 105.694547 35.352645 
Q 105.698388 34.816722 105.370882 34.511241 
Q 105.043375 34.205761 104.292919 34.048816 
L 103.692212 33.927319 
Q 102.590683 33.700668 102.100305 33.228391 
Q 101.61149 32.756125 101.617482 31.920209 
Q 101.624415 30.953047 102.309634 30.401694 
Q 102.994854 29.850341 104.190135 29.858909 
Q 104.704185 29.862593 105.234749 29.960149 
Q 105.766887 30.056153 106.321801 30.24451 
z
M 112.183023 32.078756 
L 112.176998 32.91936 
Q 111.79727 32.705695 111.415217 32.598266 
Q 111.033165 32.490837 110.64255 32.488038 
Q 109.767573 32.481766 109.279234 33.032967 
Q 108.79247 33.582617 108.785291 34.584154 
Q 108.778112 35.585691 109.256936 36.143825 
Q 109.737334 36.700408 110.612312 36.706679 
Q 111.002926 36.709479 111.38648 36.607538 
Q 111.770033 36.505597 112.152785 36.297398 
L 112.146827 37.128626 
Q 111.769019 37.300923 111.365278 37.385531 
Q 110.963087 37.471713 110.508411 37.468454 
Q 109.272505 37.459595 108.549965 36.677834 
Q 107.828988 35.896083 107.83844 34.577367 
Q 107.848027 33.239902 108.587871 32.47956 
Q 109.329288 31.717667 110.608943 31.72684 
Q 111.022995 31.729808 111.417681 31.818576 
Q 111.812379 31.905783 112.183023 32.078756 
z
M 116.212969 34.618644 
Q 115.123934 34.610838 114.701852 34.856257 
Q 114.279769 35.101675 114.275457 35.703222 
Q 114.27203 36.181335 114.585631 36.46484 
Q 114.899244 36.746783 115.439855 36.750658 
Q 116.188273 36.756022 116.64362 36.229585 
Q 117.098968 35.703148 117.105262 34.825045 
L 117.106696 34.62505 
L 116.212969 34.618644 
z
M 118.007776 34.259625 
L 117.98541 37.379857 
L 117.086996 37.373417 
L 117.092943 36.543751 
Q 116.781577 37.038407 116.320511 37.272608 
Q 115.859446 37.50681 115.1954 37.50205 
Q 114.356359 37.496036 113.862879 37.020611 
Q 113.370962 36.545198 113.376629 35.754594 
Q 113.383236 34.832742 114.003768 34.368428 
Q 114.625862 33.904125 115.85083 33.912906 
L 117.111735 33.921944 
L 117.112374 33.832883 
Q 117.11682 33.212587 116.711448 32.87061 
Q 116.306077 32.528633 115.568596 32.523347 
Q 115.099858 32.519987 114.65375 32.629292 
Q 114.209205 32.738609 113.798228 32.960669 
L 113.804186 32.12944 
Q 114.297727 31.942348 114.76245 31.851926 
Q 115.227184 31.759943 115.666235 31.76309 
Q 116.853704 31.771601 117.435214 32.39141 
Q 118.016735 33.009657 118.007776 34.259625 
z
M 124.40559 34.124229 
L 124.381926 37.425706 
L 123.483511 37.419267 
L 123.506963 34.147476 
Q 123.512529 33.370933 123.212167 32.984395 
Q 122.911816 32.596295 122.307144 32.591961 
Q 121.579038 32.586742 121.15541 33.04778 
Q 120.731793 33.507255 120.726048 34.308797 
L 120.703895 37.399343 
L 119.800793 37.392869 
L 119.839991 31.92426 
L 120.743093 31.930733 
L 120.737001 32.780711 
Q 121.063969 32.289292 121.501642 32.048673 
Q 121.940878 31.808065 122.512739 31.812164 
Q 123.454902 31.818918 123.933525 32.405176 
Q 124.41371 32.991445 124.40559 34.124229 
z
" clip-path="url(#pa35e3beccf)" style="fill: #1f77b4; stroke: #ffffff; stroke-width: 5"/>
    <path d="M 60.202699 30.23738 
L 60.195251 31.276416 
Q 59.700153 30.808793 59.13774 30.576631 
Q 58.575338 30.342906 57.94098 30.338359 
Q 56.691012 30.3294 56.02149 31.088683 
Q 55.351968 31.847966 55.341608 33.293241 
Q 55.331282 34.733829 55.989851 35.502632 
Q 56.64842 36.271434 57.898388 36.280394 
Q 58.532747 36.284941 59.098441 36.059303 
Q 59.664135 35.833664 60.165886 35.373186 
L 60.158495 36.40441 
Q 59.6388 36.752256 59.057862 36.924659 
Q 58.478498 37.095511 57.834764 37.090896 
Q 56.178557 37.079025 55.232714 36.059719 
Q 54.288444 35.038862 54.30101 33.285782 
Q 54.313609 31.528015 55.272405 30.522361 
Q 56.232774 29.515157 57.888981 29.527028 
Q 58.542089 29.53171 59.118956 29.709286 
Q 59.697386 29.886874 60.202699 30.23738 
z
M 63.791801 32.152218 
Q 63.069944 32.147043 62.645599 32.708079 
Q 62.221255 33.269114 62.214221 34.250339 
Q 62.207188 35.231564 62.620322 35.798602 
Q 63.035018 36.365652 63.761562 36.370859 
Q 64.480293 36.376011 64.903087 35.813402 
Q 65.327454 35.249242 65.334454 34.272704 
Q 65.34142 33.300854 64.925195 32.729106 
Q 64.510532 32.157369 63.791801 32.152218 
z
M 63.797255 31.3913 
Q 64.9691 31.399699 65.632367 32.166973 
Q 66.297208 32.932696 66.287554 34.279536 
Q 66.277934 35.621689 65.602151 36.38249 
Q 64.927941 37.141739 63.756097 37.13334 
Q 62.579564 37.124906 61.91787 36.356081 
Q 61.25775 35.585705 61.267371 34.243552 
Q 61.277025 32.896712 61.948087 32.140565 
Q 62.620722 31.382866 63.797255 31.3913 
z
M 67.679708 34.861405 
L 67.70344 31.550552 
L 68.601855 31.556992 
L 68.578369 34.83347 
Q 68.572803 35.610013 68.871569 36.001227 
Q 69.171909 36.390889 69.778143 36.395235 
Q 70.504687 36.400443 70.929878 35.939416 
Q 71.35663 35.4784 71.362376 34.676858 
L 71.384596 31.576938 
L 72.28301 31.583378 
L 72.243812 37.051987 
L 71.345397 37.045548 
L 71.351423 36.204944 
Q 71.021296 36.701028 70.586759 36.940107 
Q 70.153784 37.179197 69.581923 37.175098 
Q 68.63976 37.168345 68.15491 36.578917 
Q 67.671622 35.989501 67.679708 34.861405 
z
M 69.96526 31.435511 
L 69.96526 31.435511 
z
M 74.968762 36.251186 
L 74.947976 39.151111 
L 74.044874 39.144638 
L 74.098979 31.596394 
L 75.002081 31.602868 
L 74.996134 32.432534 
Q 75.283996 31.947085 75.716926 31.714244 
Q 76.15143 31.479853 76.751414 31.484153 
Q 77.748264 31.491299 78.364456 32.286361 
Q 78.98221 33.081434 78.972971 34.370463 
Q 78.963731 35.659493 78.334631 36.447191 
Q 77.707105 37.233339 76.710256 37.226193 
Q 76.110271 37.221893 75.679172 36.981297 
Q 75.249636 36.740712 74.968762 36.251186 
z
M 78.040182 34.363777 
Q 78.047283 33.373178 77.643524 32.806207 
Q 77.239765 32.239236 76.527283 32.234129 
Q 75.813239 32.22901 75.401394 32.790135 
Q 74.989549 33.35126 74.982448 34.34186 
Q 74.975348 35.332459 75.379107 35.899431 
Q 75.782866 36.466402 76.49691 36.47152 
Q 77.209391 36.476627 77.621236 35.915502 
Q 78.033082 35.354377 78.040182 34.363777 
z
M 80.496111 29.512506 
L 81.394526 29.518946 
L 81.340062 37.117188 
L 80.441648 37.110748 
L 80.496111 29.512506 
z
M 83.259095 31.662053 
L 84.15751 31.668493 
L 84.118311 37.137102 
L 83.219897 37.130662 
L 83.259095 31.662053 
z
M 83.27436 29.53242 
L 84.172775 29.53886 
L 84.16461 30.677893 
L 83.266196 30.671453 
L 83.27436 29.53242 
z
M 90.568569 33.881689 
L 90.544904 37.183167 
L 89.64649 37.176727 
L 89.669941 33.904936 
Q 89.675508 33.128394 89.375145 32.741856 
Q 89.074795 32.353756 88.470123 32.349422 
Q 87.742016 32.344203 87.318388 32.805241 
Q 86.894772 33.264716 86.889026 34.066258 
L 86.866874 37.156804 
L 85.963772 37.15033 
L 86.00297 31.681721 
L 86.906072 31.688194 
L 86.899979 32.538172 
Q 87.226948 32.046753 87.664621 31.806134 
Q 88.103857 31.565526 88.675717 31.569625 
Q 89.617881 31.576379 90.096503 32.162637 
Q 90.576688 32.748906 90.568569 33.881689 
z
M 95.954277 34.423431 
Q 95.961277 33.446894 95.562004 32.908081 
Q 95.164304 32.367716 94.436198 32.362497 
Q 93.714341 32.357323 93.307374 32.89192 
Q 92.900418 33.424954 92.893418 34.401492 
Q 92.886452 35.373342 93.285714 35.913717 
Q 93.684976 36.454093 94.406833 36.459267 
Q 95.134939 36.464486 95.540344 35.929878 
Q 95.947311 35.395281 95.954277 34.423431 
z
M 96.837494 36.550129 
Q 96.827493 37.945406 96.202313 38.622192 
Q 95.578696 39.29899 94.299041 39.289817 
Q 93.825616 39.286424 93.405818 39.2131 
Q 92.986021 39.139777 92.591771 38.990072 
L 92.598032 38.116657 
Q 92.9918 38.333548 93.376999 38.437874 
Q 93.762188 38.543763 94.162177 38.54663 
Q 95.04653 38.552969 95.488885 38.09519 
Q 95.93124 37.637411 95.937926 36.704623 
L 95.941118 36.259322 
Q 95.659528 36.741691 95.223451 36.977634 
Q 94.787373 37.213577 94.181139 37.209231 
Q 93.176477 37.20203 92.566356 36.432012 
Q 91.956246 35.660432 91.965317 34.394839 
Q 91.974411 33.126122 92.595508 32.364929 
Q 93.216616 31.602174 94.221278 31.609375 
Q 94.827512 31.61372 95.260163 31.85589 
Q 95.692813 32.09806 95.96747 32.582854 
L 95.973417 31.753188 
L 96.871832 31.759627 
L 96.837494 36.550129 
z
M 106.321801 30.24451 
L 106.314902 31.206985 
Q 105.755906 30.934222 105.258422 30.799402 
Q 104.760949 30.663021 104.296898 30.659695 
Q 103.492232 30.653927 103.052503 30.963283 
Q 102.612774 31.272639 102.608642 31.849187 
Q 102.60517 32.333549 102.894018 32.582501 
Q 103.182877 32.82989 103.992707 32.987261 
L 104.587131 33.1134 
Q 105.688716 33.332239 106.209906 33.865676 
Q 106.731095 34.399113 106.724734 35.28659 
Q 106.71713 36.347501 106.002291 36.889266 
Q 105.289014 37.431042 103.917174 37.421209 
Q 103.4 37.417502 102.81648 37.296129 
Q 102.234522 37.174767 101.611185 36.940606 
L 101.618465 35.925007 
Q 102.216041 36.265236 102.791357 36.441239 
Q 103.366684 36.61568 103.92292 36.619667 
Q 104.766648 36.625715 105.228385 36.297766 
Q 105.690134 35.968255 105.694547 35.352645 
Q 105.698388 34.816722 105.370882 34.511241 
Q 105.043375 34.205761 104.292919 34.048816 
L 103.692212 33.927319 
Q 102.590683 33.700668 102.100305 33.228391 
Q 101.61149 32.756125 101.617482 31.920209 
Q 101.624415 30.953047 102.309634 30.401694 
Q 102.994854 29.850341 104.190135 29.858909 
Q 104.704185 29.862593 105.234749 29.960149 
Q 105.766887 30.056153 106.321801 30.24451 
z
M 112.183023 32.078756 
L 112.176998 32.91936 
Q 111.79727 32.705695 111.415217 32.598266 
Q 111.033165 32.490837 110.64255 32.488038 
Q 109.767573 32.481766 109.279234 33.032967 
Q 108.79247 33.582617 108.785291 34.584154 
Q 108.778112 35.585691 109.256936 36.143825 
Q 109.737334 36.700408 110.612312 36.706679 
Q 111.002926 36.709479 111.38648 36.607538 
Q 111.770033 36.505597 112.152785 36.297398 
L 112.146827 37.128626 
Q 111.769019 37.300923 111.365278 37.385531 
Q 110.963087 37.471713 110.508411 37.468454 
Q 109.272505 37.459595 108.549965 36.677834 
Q 107.828988 35.896083 107.83844 34.577367 
Q 107.848027 33.239902 108.587871 32.47956 
Q 109.329288 31.717667 110.608943 31.72684 
Q 111.022995 31.729808 111.417681 31.818576 
Q 111.812379 31.905783 112.183023 32.078756 
z
M 116.212969 34.618644 
Q 115.123934 34.610838 114.701852 34.856257 
Q 114.279769 35.101675 114.275457 35.703222 
Q 114.27203 36.181335 114.585631 36.46484 
Q 114.899244 36.746783 115.439855 36.750658 
Q 116.188273 36.756022 116.64362 36.229585 
Q 117.098968 35.703148 117.105262 34.825045 
L 117.106696 34.62505 
L 116.212969 34.618644 
z
M 118.007776 34.259625 
L 117.98541 37.379857 
L 117.086996 37.373417 
L 117.092943 36.543751 
Q 116.781577 37.038407 116.320511 37.272608 
Q 115.859446 37.50681 115.1954 37.50205 
Q 114.356359 37.496036 113.862879 37.020611 
Q 113.370962 36.545198 113.376629 35.754594 
Q 113.383236 34.832742 114.003768 34.368428 
Q 114.625862 33.904125 115.85083 33.912906 
L 117.111735 33.921944 
L 117.112374 33.832883 
Q 117.11682 33.212587 116.711448 32.87061 
Q 116.306077 32.528633 115.568596 32.523347 
Q 115.099858 32.519987 114.65375 32.629292 
Q 114.209205 32.738609 113.798228 32.960669 
L 113.804186 32.12944 
Q 114.297727 31.942348 114.76245 31.851926 
Q 115.227184 31.759943 115.666235 31.76309 
Q 116.853704 31.771601 117.435214 32.39141 
Q 118.016735 33.009657 118.007776 34.259625 
z
M 124.40559 34.124229 
L 124.381926 37.425706 
L 123.483511 37.419267 
L 123.506963 34.147476 
Q 123.512529 33.370933 123.212167 32.984395 
Q 122.911816 32.596295 122.307144 32.591961 
Q 121.579038 32.586742 121.15541 33.04778 
Q 120.731793 33.507255 120.726048 34.308797 
L 120.703895 37.399343 
L 119.800793 37.392869 
L 119.839991 31.92426 
L 120.743093 31.930733 
L 120.737001 32.780711 
Q 121.063969 32.289292 121.501642 32.048673 
Q 121.940878 31.808065 122.512739 31.812164 
Q 123.454902 31.818918 123.933525 32.405176 
Q 124.41371 32.991445 124.40559 34.124229 
z
" clip-path="url(#pa35e3beccf)" style="fill: #1f77b4"/>
   </g>
   <g id="patch_3">
    <path d="M 31.88 174.04 
L 31.88 10.8 
" style="fill: none; stroke: #000000; stroke-width: 0.8; stroke-linejoin: miter; stroke-linecap: square"/>
   </g>
   <g id="patch_4">
    <path d="M 277.2 174.04 
L 277.2 10.8 
" style="fill: none; stroke: #000000; stroke-width: 0.8; stroke-linejoin: miter; stroke-linecap: square"/>
   </g>
   <g id="patch_5">
    <path d="M 31.88 174.04 
L 277.2 174.04 
" style="fill: none; stroke: #000000; stroke-width: 0.8; stroke-linejoin: miter; stroke-linecap: square"/>
   </g>
   <g id="patch_6">
    <path d="M 31.88 10.8 
L 277.2 10.8 
" style="fill: none; stroke: #000000; stroke-width: 0.8; stroke-linejoin: miter; stroke-linecap: square"/>
   </g>
  </g>
 </g>
 <defs>
  <clipPath id="pa35e3beccf">
   <rect x="31.88" y="10.8" width="245.32" height="163.24"/>
  </clipPath>
 </defs>
</svg>
